<?xml version="1.0" standalone="no"?>
<!DOCTYPE svg PUBLIC "-//W3C//DTD SVG 1.1//EN" "http://www.w3.org/Graphics/SVG/1.1/DTD/svg11.dtd" >
<!--
2013-9-30: Created.
-->
<svg>
<metadata>
Created by iconfont
</metadata>
<defs>

<font id="iconfont" horiz-adv-x="1024" >
  <font-face
    font-family="iconfont"
    font-weight="500"
    font-stretch="normal"
    units-per-em="1024"
    ascent="896"
    descent="-128"
  />
    <missing-glyph />
    
    <glyph glyph-name="x" unicode="x" horiz-adv-x="1001"
d="M281 543q-27 -1 -53 -1h-83q-18 0 -36.5 -6t-32.5 -18.5t-23 -32t-9 -45.5v-76h912v41q0 16 -0.5 30t-0.5 18q0 13 -5 29t-17 29.5t-31.5 22.5t-49.5 9h-133v-97h-438v97zM955 310v-52q0 -23 0.5 -52t0.5 -58t-10.5 -47.5t-26 -30t-33 -16t-31.5 -4.5q-14 -1 -29.5 -0.5
t-29.5 0.5h-32l-45 128h-439l-44 -128h-29h-34q-20 0 -45 1q-25 0 -41 9.5t-25.5 23t-13.5 29.5t-4 30v167h911zM163 247q-12 0 -21 -8.5t-9 -21.5t9 -21.5t21 -8.5q13 0 22 8.5t9 21.5t-9 21.5t-22 8.5zM316 123q-8 -26 -14 -48q-5 -19 -10.5 -37t-7.5 -25t-3 -15t1 -14.5
t9.5 -10.5t21.5 -4h37h67h81h80h64h36q23 0 34 12t2 38q-5 13 -9.5 30.5t-9.5 34.5q-5 19 -11 39h-368zM336 498v228q0 11 2.5 23t10 21.5t20.5 15.5t34 6h188q31 0 51.5 -14.5t20.5 -52.5v-227h-327z" />
    

    
    <glyph glyph-name="taiyang" unicode="&#13363;" d="M500 300m-312.5 0a5 5 0 1 0 625 0 5 5 0 1 0-625 0ZM505.9375 675C537.1875 675 562.5 700.3125 562.5 731.5625v11.875C562.5 774.6875 537.1875 800 505.9375 800S449.375 774.6875 449.375 743.4375v-11.875C449.375 700.3125 474.75 675 505.9375 675zM159.0625 569.375c22.0625-22.125 57.875-22.125 79.9375 0 22.125 22.0625 22.125 57.875 0 79.9375L230.625 657.75c-22.0625 22.0625-57.875 22.0625-79.9375 0-22.125-22.0625-22.125-57.875 0-79.9375L159.0625 569.375zM68.4375 362.5h-11.875C25.375 362.5 0 337.1875 0 305.9375c0-31.25 25.3125-56.5625 56.5-56.5h11.875C99.6875 249.375 125 274.75 125 305.9375 125 337.1875 99.6875 362.5 68.4375 362.5zM150.6875 39 142.25 30.625c-22.0625-22.125-22.0625-57.9375 0-79.9375 22.0625-22.125 57.875-22.125 79.9375 0l8.4375 8.4375c22.125 22.0625 22.125 57.875 0 79.875C208.5625 61.1875 172.75 61.1875 150.6875 39zM494.0625-75C462.8125-74.9375 437.5-100.25 437.5-131.5625l0-11.8125c0-31.25 25.375-56.5625 56.5625-56.5 31.25-0.0625 56.5625 25.25 56.5 56.5v11.875C550.625-100.3125 525.25-75 494.0625-75zM840.875 30.625c-22.0625 22.0625-57.875 22.0625-79.875 0-22.125-22.0625-22.125-57.875 0-80l8.375-8.375c22.125-22.125 57.9375-22.125 79.9375 0 22.125 22.0625 22.125 57.875 0 79.9375L840.875 30.625zM943.4375 350.5625h-11.875C900.3125 350.5625 875 325.25 875 294.0625 874.9375 262.8125 900.25 237.5 931.5625 237.5h11.8125c31.25 0 56.5625 25.3125 56.5 56.5625C1000 325.25 974.6875 350.5625 943.4375 350.5625zM777.75 649.3125l-8.375-8.4375c-22.125-22.0625-22.125-57.875-0.0625-79.875 22.0625-22.125 57.875-22.125 80 0l8.375 8.375c22.125 22.125 22.125 57.9375 0 79.9375C835.6875 671.375 799.875 671.375 777.75 649.3125z"  horiz-adv-x="1000" />

    
    <glyph glyph-name="diandeng" unicode="&#58904;" d="M524.266883 117.117786c-22.426779 0-44.854581-0.137123-67.281359 0.039909-20.131503 0.157589-34.68394 9.750061-44.066635 27.309996-3.292999 6.161327-4.562922 12.975523-4.411473 19.930935 0.592494 26.811646-6.92062 51.346435-20.684088 74.114998-5.061272 8.375761-11.628852 15.58086-18.351973 22.650883-14.464433 15.213493-25.90295 32.644491-36.889165 50.41932-9.623171 15.57165-17.912975 31.792077-24.088628 49.022507-5.855358 16.33299-9.42158 33.151028-9.92607 50.581002-0.543376 18.747993 1.295506 37.247322 5.349845 55.533804 6.046716 27.272133 17.202801 52.30425 33.485649 74.988902 23.538089 32.790824 52.68492 59.248406 89.080851 77.130681 15.295358 7.514137 31.431873 12.863982 48.172139 16.45067 20.069081 4.300956 40.35715 5.609765 60.761875 4.844332 28.567639-1.072425 56.035224-7.196912 82.173534-19.050891 16.743336-7.592932 32.020274-17.448394 46.171576-29.087479 21.189601-17.429974 39.671535-37.305651 54.233182-60.674894 13.244652-21.25714 22.363334-44.166919 27.443026-68.677149 4.104481-19.805068 5.957689-39.810704 4.26821-60.007699-1.450025-17.316387-5.952572-33.918507-12.342096-50.077535-9.968026-25.220405-23.424502-48.451502-39.893592-69.902046-6.91141-8.998955-14.34573-17.663288-22.188348-25.859971-8.815783-9.214872-15.298428-19.767206-20.313651-31.3101-5.084808-11.700483-10.375302-23.408129-12.231579-36.152385-1.092891-7.494695-1.063215-15.151072-1.823532-22.705118-0.554632-5.507434-0.984421-11.139711-2.508123-16.415878-3.413749-11.825326-11.452843-20.172435-21.825075-26.39516-7.91732-4.752234-16.565281-6.740518-25.771967-6.718005C568.629253 117.153602 546.448068 117.117786 524.266883 117.117786zM510.18926 582.83774c-0.01228 0.140193-0.023536 0.280386-0.037862 0.421602-7.222495-0.818645-14.490016-1.357927-21.660322-2.51017-17.207917-2.765997-33.342386-8.699126-48.416709-17.437138-13.626345-7.896854-25.52228-17.950837-36.340673-29.352515-11.703553-12.33391-21.212114-26.115797-28.166503-41.662889-8.761548-19.583011-12.419867-40.148395-12.742209-61.517075-0.212848-14.08274 12.256138-20.527522 21.506826-18.928095 7.471159 1.291412 13.875009 8.704243 14.502295 17.060561 0.228197 3.01466 0.282433 6.042623 0.433882 9.063423 0.540306 10.934027 2.418073 21.680788 6.184863 31.917944 8.324596 22.627347 23.161512 40.348963 42.278919 54.758138 18.160615 13.68672 38.488593 21.261233 61.20292 22.473851 3.910053 0.208754 7.864108 0.330528 11.704576 1.004887 5.855358 1.027399 10.204409 4.288676 12.3247 10.024308 1.547239 4.184299 1.610684 8.458649 0.410346 12.762675-1.906419 6.844895-6.252401 11.051707-13.377682 11.858072C516.767072 583.141662 513.46077 582.83774 510.18926 582.83774zM641.103892 39.004731c0.229221-6.060019-3.120061-12.704346-10.423397-14.536065-5.197372-1.303692-10.5421-2.158153-15.872502-2.771113-26.491351-3.042289-53.001121-5.929036-79.501682-8.886391-24.466228-2.729158-48.931432-5.482875-73.399707-8.209986-11.870352-1.323135-23.732517-2.701528-35.616172-3.877307-6.095835-0.603751-11.69025 0.777713-15.365966 6.161327-3.846608 5.63944-4.108574 11.56336-1.234107 17.887392 2.598174 5.717212 7.496741 7.263427 12.865006 7.893784 24.370037 2.861164 48.759517 5.567809 73.144904 8.314363 22.354124 2.51631 44.709271 5.000897 67.062372 7.519254 19.913539 2.243087 39.829124 4.477988 59.735499 6.789637C632.22364 56.418332 641.128451 48.697487 641.103892 39.004731zM424.818917 55.51066c-7.337105 0.308015-12.897751 3.181459-15.731286 9.614985-3.815909 8.662287 0.320295 20.812001 11.381212 22.342868 10.692526 1.479701 21.446451 2.514263 32.17991 3.694135 15.85613 1.744737 31.718399 3.437286 47.576575 5.16565 17.405415 1.896186 34.808784 3.801583 52.210106 5.703909 15.694447 1.716084 31.388894 3.432169 47.083341 5.151323 8.05035 0.881067 16.093537 1.856277 24.15412 2.631944 7.1744 0.691755 14.755052-4.273327 16.689101-10.706853 2.279926-7.580652-0.765433-16.099676-7.372921-19.556405-2.24411-1.174756-4.965082-1.690502-7.525394-1.980097-29.266557-3.298116-58.540278-6.504134-87.815021-9.713222-32.04074-3.510964-64.084551-6.994298-96.127338-10.494005C435.829691 56.746814 430.141132 56.103154 424.818917 55.51066zM464.005404-50.440417c-5.840008 0.13303-11.056823 1.503237-14.393825 6.840802-6.075369 9.715269-0.490164 22.718421 10.835789 24.485671 10.984169 1.714038 22.060435 2.852978 33.101909 4.201695 15.751752 1.922792 31.509644 3.799536 47.264467 5.708002 13.966083 1.691525 27.92091 3.488451 41.899272 5.069459 8.836249 0.99977 17.48728-5.083785 19.045775-13.784958 1.072425-5.987365-1.391696-11.238972-6.265704-14.826684-2.397606-1.765203-5.456269-3.220345-8.373715-3.593851-17.848507-2.28095-35.746132-4.208858-53.624315-6.259564-21.698185-2.489704-43.395346-4.984524-65.094554-7.468089C466.94127-50.235756 465.471802-50.318644 464.005404-50.440417z"  horiz-adv-x="1024" />

    
    <glyph glyph-name="4" unicode="&#58912;" d="M510.567883-205.414001c-279.145651 0-505.423211 226.260164-505.423211 505.405815 0 279.069927 226.27756 505.423211 505.423211 505.423211 279.069927 0 505.423211-226.353284 505.423211-505.423211C1015.992117 20.846162 789.63781-205.414001 510.567883-205.414001L510.567883-205.414001zM510.567883 727.640684c-236.169861 0-427.630451-191.462636-427.630451-427.64887 0-236.168838 191.46059-427.650917 427.630451-427.650917 236.168838 0 427.650917 191.482079 427.650917 427.650917C938.219823 536.178047 746.736721 727.640684 510.567883 727.640684L510.567883 727.640684zM595.214748 90.039058l-72.345702 0 0 78.343299L363.128903 168.382357l0 65.091484L532.399097 481.278693l62.815651 0 0-247.614517 48.216141 0 0-65.281819-48.216141 0L595.214748 90.039058 595.214748 90.039058zM522.869047 367.190285l-89.769536-133.526109 89.769536 0L522.869047 367.190285 522.869047 367.190285z"  horiz-adv-x="1024" />

    
    <glyph glyph-name="icon47" unicode="&#58935;" d="M512.002047-101.854391l-62.554708 61.180408c-232.28846 200.949708-384.157333 336.436472-384.157333 502.446413 0 135.416156 107.175975 240.298901 245.699911 240.298901 75.902714 0 151.86785-34.997072 201.01213-91.76703 49.072649 56.769958 125.104299 91.76703 201.007013 91.76703 138.453329 0 245.699911-104.883769 245.699911-240.298901 0-166.009941-151.935388-301.496705-384.219755-502.446413L512.002047-101.854391z"  horiz-adv-x="1024" />

    
    <glyph glyph-name="shuzi1" unicode="&#58891;" d="M512-183.555556c-266.632533 0-483.555556 216.923022-483.555556 483.555556S245.367467 783.555556 512 783.555556s483.555556-216.923022 483.555556-483.555556S778.632533-183.555556 512-183.555556zM512 726.666667C276.736 726.666667 85.333333 535.264 85.333333 300c0-235.264 191.402667-426.666667 426.666667-426.666667 235.264 0 426.666667 191.402667 426.666667 426.666667C938.666667 535.264 747.264 726.666667 512 726.666667zM517.276444 92.64 517.276444 462.6368l-65.277156 0 0 34.443378 120.001422 10.276978 0-414.72L517.276444 92.637156z"  horiz-adv-x="1024" />

    
    <glyph glyph-name="shuzi2" unicode="&#58892;" d="M512-183.555556c-266.632533 0-483.555556 216.923022-483.555556 483.555556S245.367467 783.555556 512 783.555556s483.555556-216.923022 483.555556-483.555556S778.632533-183.555556 512-183.555556zM512 726.666667C276.736 726.666667 85.333333 535.264 85.333333 300s191.402667-426.666667 426.666667-426.666667 426.666667 191.402667 426.666667 426.666667S747.264 726.666667 512 726.666667zM388.664889 89.306311l0 48.056889c15.926044 37.2224 48.147911 77.778489 96.6656 121.665422l31.388444 28.054756c22.673067 20.738844 38.385778 39.489422 47.143822 56.248889 8.7552 16.759467 13.1328 34.210133 13.1328 52.360533 0 23.148089-7.025778 41.250133-21.080178 54.306133s-32.913067 19.584-56.576 19.584c-10.174578 0-19.925333-0.9728-29.263644-2.915556-9.341156-1.9456-19.322311-5.046044-29.952-9.304178-10.632533-4.263822-24.362667-11.207111-41.184711-20.832711L398.939022 484.860444c36.48 17.223111 72.777956 25.833244 108.888178 25.833244 39.443911 0 70.556444-10.834489 93.334756-32.500622s34.167467-48.708267 34.167467-81.112178c0-21.111467-4.679111-41.019733-14.0288-59.721956-9.352533-18.705067-32.457956-43.795911-69.304889-75.278222l-21.111467-18.056533c-15.374222-12.964978-30.833778-28.7488-46.390044-47.36s-25.463467-38.380089-29.7216-59.306667l178.889956 0 0-48.056889L388.664889 89.300622z"  horiz-adv-x="1024" />

    
    <glyph glyph-name="shuzi3" unicode="&#58893;" d="M512-183.555556c-266.632533 0-483.555556 216.923022-483.555556 483.555556S245.367467 783.555556 512 783.555556s483.555556-216.923022 483.555556-483.555556S778.632533-183.555556 512-183.555556zM512 726.666667C276.736 726.666667 85.333333 535.264 85.333333 300s191.402667-426.666667 426.666667-426.666667 426.666667 191.402667 426.666667 426.666667S747.264 726.666667 512 726.666667zM392.137956 97.501156l0 51.111822c39.131022-15.556267 69.922133-23.332978 92.3648-23.332978 26.146133 0 47.522133 7.640178 64.122311 22.917689 16.597333 15.277511 24.900267 35.043556 24.900267 59.306667 0 23.702756-8.487822 44.071822-25.469156 61.110044-16.978489 17.035378-49.026844 25.554489-96.1536 25.554489l-21.7088 0 0 36.943644 19.165867 0.278756c43.889778 0 73.841778 8.007111 89.861689 24.027022 16.014222 16.014222 24.027022 34.7648 24.027022 56.248889 0 19.072-6.345956 34.349511-19.026489 45.832533-12.686222 11.480178-31.527822 17.223111-56.527644 17.223111-27.039289 0-57.039644-7.685689-90.001067-23.054222l0 47.778133c23.515022 7.958756 41.847467 12.680533 55.000178 14.165333 13.147022 1.481956 26.015289 2.221511 38.610489 2.221511 43.514311 0 75.556978-8.706844 96.110933-26.112 20.5568-17.408 30.833778-40.465067 30.833778-69.165511 0-16.110933-2.963911-30.2336-8.888889-42.362311-5.927822-12.131556-14.907733-23.429689-26.945422-33.888711-12.040533-10.464711-28.706133-19.492978-49.999644-27.081956 26.848711-6.2976 46.805333-14.353067 59.861333-24.1664 13.056-9.819022 22.917689-22.129778 29.582222-36.943644 6.667378-14.816711 10.001067-30.742756 10.001067-47.778133 0-32.221867-11.019378-60.973511-33.055289-86.249244-22.0416-25.278578-58.888533-37.916444-110.555022-37.916444C462.6944 84.1664 430.654578 88.612267 392.137956 97.501156z"  horiz-adv-x="1024" />

    
    <glyph glyph-name="shuzi6" unicode="&#58896;" d="M512.136533-184.2496c-266.632533 0-483.555556 216.923022-483.555556 483.555556s216.923022 483.555556 483.555556 483.555556 483.555556-216.923022 483.555556-483.555556S778.769067-184.2496 512.136533-184.2496zM512.136533 725.972622c-235.264 0-426.666667-191.402667-426.666667-426.666667s191.402667-426.666667 426.666667-426.666667 426.666667 191.402667 426.666667 426.666667S747.400533 725.972622 512.136533 725.972622zM431.442489 306.545067c10.555733 13.698844 20.650667 23.8336 30.279111 30.404267s20.232533 11.619556 31.806578 15.135289 23.751111 5.276444 36.528356 5.276444c23.332978 0 44.583822-5.552356 63.749689-16.651378 19.165867-11.101867 33.749333-26.319644 43.7504-45.650489 10.001067-19.330844 14.998756-40.928711 14.998756-64.790756 0-26.271289-5.833956-50.878578-17.499022-73.816178-11.667911-22.943289-27.221333-40.840533-46.665956-53.697422-19.444622-12.8512-43.517156-19.282489-72.223289-19.282489-48.890311 0-85.182578 19.848533-108.888178 59.5456-23.7056 39.697067-35.555556 88.689778-35.555556 146.986667 0 38.493867 5.7344 75.4176 17.206044 110.762667 11.465956 35.347911 29.038933 63.243378 52.721778 83.692089 23.677156 20.451556 56.137956 30.677333 97.393778 30.677333 12.760178 0 25.0624-0.833422 36.900978-2.500267 11.844267-1.666844 30.250667-6.018844 55.222044-13.056l0-47.778133c-38.650311 14.813867-70.456889 22.223644-95.422578 22.223644-36.616533 0-63.1552-15.465244-79.610311-46.384356C439.668622 396.719644 431.442489 356.354133 431.442489 306.545067zM597.552356 219.448178c0 32.543289-7.543467 57.088-22.638933 73.642667-15.095467 16.548978-33.8432 24.826311-56.248889 24.826311-18.517333 0-37.316267-6.752711-56.388267-20.252444s-28.612267-33.194667-28.612267-59.081956c0-26.4448 6.621867-52.056178 19.859911-76.836978 13.238044-24.777956 35.510044-37.165511 66.804622-37.165511 22.593422 0 41.110756 8.271644 55.554844 24.826311C590.330311 165.9584 597.552356 189.3056 597.552356 219.448178z"  horiz-adv-x="1024" />

    
    <glyph glyph-name="shuzi7" unicode="&#58897;" d="M512-183.555556c-266.632533 0-483.555556 216.923022-483.555556 483.555556S245.367467 783.555556 512 783.555556s483.555556-216.923022 483.555556-483.555556S778.632533-183.555556 512-183.555556zM512 726.666667C276.736 726.666667 85.333333 535.264 85.333333 300s191.402667-426.666667 426.666667-426.666667 426.666667 191.402667 426.666667 426.666667S747.264 726.666667 512 726.666667zM403.945244 94.443378c6.294756 37.2224 15.229156 67.9168 26.806044 92.0832 11.5712 24.1664 27.821511 53.193956 48.750933 87.082667l112.221867 180.5568-211.666489 0 0 51.387733 263.887644 0 0-51.387733c-35.555556-52.221156-64.816356-99.165867-87.776711-140.834133-22.9632-41.665422-42.407822-80.881778-58.333867-117.637689-15.928889-36.7616-26.205867-70.513778-30.833778-101.250844L403.945244 94.443378z"  horiz-adv-x="1024" />

    
    <glyph glyph-name="shuzi8" unicode="&#58898;" d="M512-183.555556c-266.632533 0-483.555556 216.923022-483.555556 483.555556S245.367467 783.555556 512 783.555556s483.555556-216.923022 483.555556-483.555556S778.632533-183.555556 512-183.555556zM512 726.666667C276.736 726.666667 85.333333 535.264 85.333333 300s191.402667-426.666667 426.666667-426.666667 426.666667 191.402667 426.666667 426.666667S747.264 726.666667 512 726.666667zM456.1664 318.471822c-26.112 18.130489-42.686578 34.133333-49.720889 48.011378-7.04 13.8752-10.555733 28.771556-10.555733 44.683378 0 30.085689 11.201422 55.054222 33.609956 74.899911 22.405689 19.842844 52.315022 29.764267 89.722311 29.764267 33.888711 0 61.340444-8.260267 82.360889-24.775111 21.0176-16.514844 31.527822-37.777067 31.527822-63.792356 0-18.133333-5.373156-36.030578-16.110933-53.700267-10.740622-17.672533-30.927644-36.036267-60.555378-55.0912 34.443378-16.867556 58.564267-34.608356 72.359822-53.233778 13.795556-18.628267 20.693333-40.078222 20.693333-64.352711 0-31.866311-12.407467-59.2896-37.2224-82.261333-24.817778-22.971733-58.706489-34.4576-101.666133-34.4576-44.2624 0-78.011733 10.976711-101.250844 32.930133-23.241956 21.953422-34.861511 48.125156-34.861511 78.512356 0 21.680356 6.434133 43.3152 19.305244 64.904533C406.675911 282.099911 427.460267 301.422222 456.1664 318.471822zM485.888 296.233956c-26.112-20.201244-42.083556-36.832711-47.917511-49.897244-5.833956-13.064533-8.749511-27.008-8.749511-41.836089 0-24.092444 7.870578-43.320889 23.611733-57.682489 15.738311-14.3616 35.461689-21.540978 59.167289-21.540978 22.223644 0 41.295644 5.927822 57.221689 17.789156 15.926044 11.858489 23.887644 28.259556 23.887644 49.200356 0 15.010133-4.212622 27.9808-12.637867 38.914844-8.428089 10.934044-26.990933 24.925867-55.694222 41.975467L485.888 296.233956zM525.889422 335.677867c18.147556 12.023467 32.267378 25.250133 42.362311 39.685689 10.092089 14.432711 15.138133 29.232356 15.138133 44.404622 0 15.911822-6.343111 29.044622-19.026489 39.409778-12.686222 10.362311-29.582222 15.542044-50.693689 15.542044-21.666133 0-38.471111-5.321956-50.417778-15.960178-11.943822-10.641067-17.917156-23.079822-17.917156-37.327644 0-13.508267 4.861156-26.322489 14.583467-38.442667S491.628089 355.105422 525.889422 335.677867z"  horiz-adv-x="1024" />

    
    <glyph glyph-name="shuzi9" unicode="&#58899;" d="M512-183.555556c-266.632533 0-483.555556 216.923022-483.555556 483.555556S245.367467 783.555556 512 783.555556s483.555556-216.923022 483.555556-483.555556S778.632533-183.555556 512-183.555556zM512 726.666667C276.736 726.666667 85.333333 535.264 85.333333 300s191.402667-426.666667 426.666667-426.666667 426.666667 191.402667 426.666667 426.666667S747.264 726.666667 512 726.666667zM393.665422 96.943644l0 46.390044c34.813156-12.040533 64.443733-18.056533 88.888889-18.056533 22.590578 0 41.850311 5.967644 57.7792 17.911467 15.926044 11.943822 28.379022 31.3856 37.361778 58.328178 8.979911 26.939733 13.471289 56.337067 13.471289 88.186311-12.222578-14.995911-22.778311-25.642667-31.6672-31.937422-8.888889-6.294756-18.659556-11.107556-29.306311-14.441244-10.6496-3.333689-21.899378-4.994844-33.749333-4.994844-22.778311 0-43.844267 6.064356-63.195022 18.193067-19.3536 12.125867-34.352356 28.009244-44.999111 47.638756-10.6496 19.626667-15.971556 41.480533-15.971556 65.555911 0 25.3696 5.876622 49.7664 17.6384 73.193244 11.758933 23.424 27.406222 41.432178 46.944711 54.027378 19.535644 12.592356 43.099022 18.889956 70.695822 18.889956 49.072356 0 85.370311-19.677867 108.888178-59.027911 23.517867-39.352889 35.2768-86.624711 35.2768-141.806933 0-42.040889-6.991644-81.624178-20.972089-118.749867-13.983289-37.131378-33.473422-65.095111-58.473244-83.888356s-56.667022-28.194133-94.998756-28.194133C455.793778 84.1664 427.923911 88.430222 393.665422 96.943644zM426.999467 379.024356c0-30.697244 7.082667-55.247644 21.250844-73.645511 14.165333-18.403556 33.564444-27.599644 58.194489-27.599644 20.184178 0 39.210667 7.304533 57.082311 21.9136 17.8688 14.609067 26.806044 34.119111 26.806044 58.530133 0 21.080178-3.936711 41.563022-11.804444 61.44-7.873422 19.879822-17.962667 34.0224-30.279111 42.439111-12.316444 8.413867-26.990933 12.623644-44.029156 12.623644-24.260267 0-43.195733-8.6016-56.8064-25.799111S426.999467 408.424533 426.999467 379.024356z"  horiz-adv-x="1024" />

    
    <glyph glyph-name="iconfontwangyi" unicode="&#58887;" d="M388.6 711.6C339 701.5 327.9 693.4 327.9 663.1c0-25.3 1-25.3 53.6-18.2 70.8 11.1 248.9 7.1 280.2-6.1 35.4-13.2 49.6-39.5 56.7-103.2 8.1-70.8-14.2-98.1-78.9-98.1-24.3-1-96.1-3-161.9-5.1-147.7-5.1-153.8 0-155.8 111.3-1 40.5-4 77.9-8.1 85-11.1 18.2-44.5 13.1-56.7-8.1-11.1-22.3-13.2-118.4-2-173 12.1-63.7 34.4-84 98.1-89 47.5-4 54.6-7.1 43.5-19.2-28.3-34.4-126.5-73.9-186.1-73.9-47.6 0-69.8-19.2-59.7-50.6 10.1-32.4 74.9-28.3 191.2 13.1 38.4 14.2 124.4 82 145.7 116.3 17.2 26.3 19.2 27.3 118.4 26.3 123.4-1 161.9 11.1 182.1 60.7 18.2 43.5 19.2 71.8 4.1 134.5C766.9 671.2 752.8 686.3 666.8 708.6 621.2 720.7 443.2 722.7 388.6 711.6L388.6 711.6zM386.5 561.9c-5.1-7.1-8.1-20.2-6.1-30.3 3-16.2 16.2-18.2 129.5-18.2l126.5 1 3 27.3c4 32.4 11.1 30.3-132.5 31.4C432.1 574 393.6 570 386.5 561.9L386.5 561.9 386.5 561.9zM561.6 345.4c-18.2-7.1-22.3-15.2-18.2-34.4 4-23.3-7.1-33.4-108.3-100.1-70.8-47.6-134.5-80.9-173-92.1-112.3-32.4-133.5-48.6-106.2-80.9 42.5-50.6 230.7 44.5 433 219.5 43.5 37.4 81.9 35.4 101.2-4 10.1-22.3 20.2-28.3 46.5-28.3 72.8 0 95.1-84 42.5-160.9-52.6-75.9-143.7-110.3-207.4-77.9-28.3 15.2-32.4 15.2-37.4 1-8.1-19.2 12.1-68.8 37.4-92.1 38.4-34.4 151.7 1 232.7 73.8 51.6 46.5 68.8 78.9 73.8 141.6 9.1 113.3-77.9 218.5-194.2 231.7-26.3 3-58.7 7.1-72.8 8.1C597 352.5 574.7 350.5 561.6 345.4L561.6 345.4 561.6 345.4zM604 166.3C467.5 58.1 352.1-6.6 239.8-37c-65.8-18.2-69.8-81.9-5.1-81.9 39.5 0 152.8 48.6 214.5 92.1 31.3 22.3 64.7 39.5 73.8 39.5s17.2 6.1 17.2 13.2c0 8.1 26.3 36.4 57.7 63.7 94.1 80.9 97.1 84 83 101.2C664.7 210.9 658.7 208.8 604 166.3L604 166.3z"  horiz-adv-x="1024" />

    
    <glyph glyph-name="icon" unicode="&#58889;" d="M127.613446 429.441071c-70.40142 0-127.470183-57.06774-127.470183-127.470183s57.06774-127.470183 127.470183-127.470183S255.083629 231.569468 255.083629 301.971911 198.014866 429.441071 127.613446 429.441071zM127.613446 216.991448c-46.933939 0-84.97944 38.045501-84.97944 84.97944 0 46.933939 38.045501 84.97944 84.97944 84.97944 46.933939 0 84.97944-38.045501 84.97944-84.97944C212.593909 255.036949 174.548408 216.991448 127.613446 216.991448zM892.432499 429.441071c-70.40142 0-127.470183-57.06774-127.470183-127.470183s57.06774-127.470183 127.470183-127.470183 127.470183 57.06774 127.470183 127.470183S962.833919 429.441071 892.432499 429.441071zM892.432499 216.991448c-46.933939 0-84.97944 38.045501-84.97944 84.97944 0 46.933939 38.045501 84.97944 84.97944 84.97944s84.97944-38.045501 84.97944-84.97944C977.412962 255.036949 939.367461 216.991448 892.432499 216.991448zM510.022972 429.441071c-70.40142 0-127.470183-57.06774-127.470183-127.470183s57.06774-127.470183 127.470183-127.470183S637.493156 231.569468 637.493156 301.971911 580.424392 429.441071 510.022972 429.441071zM510.022972 216.991448c-46.933939 0-84.97944 38.045501-84.97944 84.97944 0 46.933939 38.045501 84.97944 84.97944 84.97944 46.933939 0 84.97944-38.045501 84.97944-84.97944C595.003436 255.036949 556.957935 216.991448 510.022972 216.991448z"  horiz-adv-x="1024" />

    
    <glyph glyph-name="pengyouquan" unicode="&#58987;" d="M921.271826 472.208107c-22.413476 52.975539-54.482869 100.555184-95.355765 141.40966-40.851407 40.853453-88.432075 72.933079-141.426033 95.353718C629.652072 732.168814 571.376831 743.933765 511.31899 743.933765c-92.582605 0-181.323719-28.157293-256.647241-81.424474-36.252669-25.66145-68.420299-56.492642-95.596242-91.666746-27.452235-35.514865-49.26503-74.771961-64.871473-116.672256-18.442024-49.580209-27.808346-101.787244-27.808346-155.151639 0-60.066027 11.781324-118.334105 34.971489-173.189458 22.411429-52.992935 54.482869-100.56337 95.353718-141.43422 40.853453-40.845267 88.434122-72.932056 141.426033-95.337345 54.840002-23.207561 113.115244-34.970466 173.173085-34.970466 60.057841 0 118.333082 11.762905 173.172061 34.970466 52.993958 22.406313 100.574626 54.492078 141.426033 95.337345 40.871873 40.869826 72.941266 88.441285 95.355765 141.43422 23.204491 54.855352 34.970466 113.12343 34.970466 173.189458C956.242292 359.068304 944.476317 417.334335 921.271826 472.208107L921.271826 472.208107zM881.792673 484.548156l-205.41951-192.432731c0.064468 1.717108 0.080841 3.443425 0.080841 5.169743 0 4.455475-0.179079 8.880251-0.534166 13.255908l1.004887 368.31246C765.747703 639.991438 838.397327 570.842545 881.792673 484.548156L881.792673 484.548156zM509.617232 160.994086c-75.129094 0-136.272663 61.136406-136.272663 136.291083 0 75.152631 61.143569 136.289036 136.272663 136.289036 75.160817 0 136.305409-61.135382 136.305409-136.289036C645.92264 222.130492 584.778048 160.994086 509.617232 160.994086L509.617232 160.994086zM646.392338 690.779148l-0.76134-296.958342c-14.358009 20.150946-33.04358 36.96489-54.710043 49.102325L353.379864 681.826242c49.232285 20.426215 102.759385 31.568996 157.939125 31.568996C558.59062 713.395238 604.047928 705.429823 646.392338 690.779148L646.392338 690.779148zM323.853387 668.213199l203.914226-205.088982c-5.963829 0.647753-12.008498 0.989537-18.150382 0.989537-2.171456 0-4.374634-0.057305-6.54609-0.138146l0 0.105401-371.950314 0.033769C170.110841 553.664304 239.325225 625.155545 323.853387 668.213199L323.853387 668.213199zM96.926028 299.018649c0 46.153156 7.535627 91.366917 22.363334 134.562718l294.195416-0.032746c-11.926634-8.442276-22.719444-18.417465-32.021298-29.614481l-260.47236-244.113787C105.433796 203.34873 96.926028 250.207967 96.926028 299.018649L96.926028 299.018649zM133.243165 129.442486l212.536604 199.207018c-1.961678-10.160407-2.982938-20.645203-2.982938-31.364335 0-11.967566 1.296529-23.63735 3.694135-34.898835l-0.275269 0-0.973164-343.022471C251.251859-39.352895 175.361425 35.879554 133.243165 129.442486L133.243165 129.442486zM375.759571-92.597563l0.825808 289.37462c15.023158-19.859303 34.405601-36.260855 56.670697-47.78226L667.55738-84.80304c-48.260144-19.713994-100.993159-30.569226-156.23839-30.569226C463.852932-115.372266 418.265664-107.344428 375.759571-92.597563L375.759571-92.597563zM697.23019-71.271862 494.35155 131.160617c5.03876-0.452301 10.128685-0.705058 15.264659-0.705058 24.453948 0 47.692209 5.28333 68.6311 14.764262l317.466422-0.963954C857.892333 50.634606 786.813484-26.115406 697.23019-71.271862L697.23019-71.271862zM906.685619 174.754484l-283.029098 0.873903c19.169595 17.987676 34.112935 40.415478 43.138496 65.665559l228.351801 213.912951c19.690458-48.227398 30.549783-100.969623 30.549783-156.189272C925.696602 255.74917 919.019529 214.004417 906.685619 174.754484L906.685619 174.754484zM906.685619 174.754484"  horiz-adv-x="1024" />

    
    <glyph glyph-name="lianjie01" unicode="&#58955;" d="M1024.000034 297.632l0 4.736c0 109.696-89.728 199.424-199.424 199.424L570.368034 501.792c-109.696 0-199.424-89.728-199.488-199.488l0.064-4.672c0-9.152 0.768-18.112 1.856-26.944l93.056 0.064C463.616034 279.392 462.400034 288.416 462.400034 297.696L462.336034 302.304c0 59.584 48.448 108.032 108.032 108.032l254.208-0.064c59.52 0.064 107.904-48.384 107.904-107.904l0.064-4.736c0-59.584-48.448-108.032-108.032-108.032l-114.944-0.064c-14.656-34.624-36.224-65.6-62.848-91.328l177.792-0.064C934.272034 98.208 1024.000034 187.936 1024.000034 297.632L1024.000034 297.632 1024.000034 297.632 1024.000034 297.632zM653.056034 302.304c0 9.152-0.768 18.112-1.984 26.944L558.080034 329.248c2.24-8.64 3.52-17.6 3.52-26.944l0-4.736c0.064-59.52-48.448-108.032-108.032-108.032L199.424034 189.6c-59.52 0.064-107.968 48.448-108.032 108.032L91.392034 302.368c0 59.584 48.448 108.032 107.968 107.968l115.008 0C329.088034 444.96 350.656034 476 377.216034 501.728L199.488034 501.856C89.728034 501.792-0.063966 412 3.4e-05 302.368l0-4.736c0.064-109.696 89.792-199.424 199.424-199.424l254.144 0.064c109.632 0.064 199.424 89.856 199.424 199.424L653.056034 302.304 653.056034 302.304 653.056034 302.304 653.056034 302.304zM653.056034 302.304"  horiz-adv-x="1025" />

    
    <glyph glyph-name="icon2" unicode="&#58903;" d="M512.008698 748.424033c-247.689219 0-448.459848-200.771653-448.459848-448.440405 0-247.669776 200.77063-448.441429 448.459848-448.441429 247.650333 0 448.441429 200.77063 448.441429 448.441429C960.449104 547.653403 759.658008 748.424033 512.008698 748.424033zM695.461917 96.147172 328.53706 96.147172c-33.760918 0-61.151755 6.997368-61.151755 40.767496 0 33.781384 27.390837 40.767496 61.151755 40.767496l366.924857 0c33.780361 0 61.150732-6.986111 61.150732-40.767496C756.612649 103.14454 729.242278 96.147172 695.461917 96.147172zM695.461917 259.216131 328.53706 259.216131c-33.760918 0-61.151755 7.006578-61.151755 40.767496 0 33.780361 27.390837 40.766472 61.151755 40.766472l366.924857 0c33.780361 0 61.150732-6.986111 61.150732-40.766472C756.612649 266.222709 729.242278 259.216131 695.461917 259.216131zM695.461917 422.285091 328.53706 422.285091c-33.760918 0-61.151755 6.997368-61.151755 40.767496 0 33.780361 27.390837 40.766472 61.151755 40.766472l366.924857 0c33.780361 0 61.150732-6.987135 61.150732-40.766472C756.612649 429.282458 729.242278 422.285091 695.461917 422.285091z"  horiz-adv-x="1024" />

    
    <glyph glyph-name="shezhixiaoxitongzhi" unicode="&#58981;" d="M785.281083 547.968445c-75.463716 0-136.641053 61.176314-136.641053 136.641053S709.817368 821.250552 785.281083 821.250552s136.641053-61.176314 136.641053-136.641053S860.745822 547.968445 785.281083 547.968445zM156.733671 602.625276l0-491.906359c0-60.370972 48.941666-109.312638 109.312638-109.312638l437.250552 0c60.370972 0 109.312638 48.941666 109.312638 109.312638L812.609499 438.656831l54.655807 0 0-355.266329c0-75.463716-61.177338-136.641053-136.641053-136.641053L238.718917-53.250552c-75.463716 0-136.641053 61.176314-136.641053 136.641053L102.077863 629.953691c0 75.463716 61.176314 136.641053 136.641053 136.641053l300.609499 0 0-54.655807L266.046309 711.938937C205.676359 711.937914 156.733671 662.996249 156.733671 602.625276z"  horiz-adv-x="1024" />

    
    <glyph glyph-name="3" unicode="&#58905;" d="M681.398108-143.388343c-12.612249 0-25.286919 1.066285-37.662785 3.184529-46.306652 7.890714-85.020372 27.357068-110.574375 55.326073-13.866822-4.612041-30.149671-3.090385-40.314171 0.156566-25.428136-29.569456-69.412906-50.039673-120.691803-55.623855-90.809215-9.834996-162.810063 20.659529-169.994696 69.412906-5.945409 39.812751 36.408211 71.075779 81.820494 89.130993-19.921725 24.988114-35.106566 53.930283-43.74941 83.200934-24.722054-29.67895-45.977147-48.581462-70.087265-42.760896-8.03193 1.913583-19.326161 7.937786-27.624151 25.75764-16.439414 35.231409-16.078187 108.393709 16.972557 174.558641 13.364379 26.761504 32.000831 48.690956 47.529503 65.742307-5.881964 12.548804-11.576663 27.748994-11.576663 41.22389 0 22.274306 9.725502 41.694611 28.251438 56.691163-1.662873 12.706393-2.463098 24.424272-2.463098 35.560914 0 161.100118 127.98593 287.297308 291.376207 287.297308 161.695682 0 293.242717-128.880299 293.242717-287.297308l0.047072-7.843642c0.062422-8.126075 0.141216-17.004279-0.376577-25.505907 15.184841-11.105942 24.251334-26.729781 24.251334-58.902528 0-13.505595-1.160429-27.937283-7.921413-39.216163 13.035898-18.478863 27.38879-41.349757 40.314171-61.945841l2.77623-4.423753c31.027667-49.397037 34.165124-135.405923 16.156982-176.441525-8.079002-18.400069-19.043728-23.984251-26.839275-25.428136-3.670599-0.674359-7.199982-0.988514-10.604522-0.988514 0 0 0 0-0.01535 0-27.13808 0-45.003983 18.85544-60.659545 41.003879-9.459442-28.28316-24.612561-57.145511-42.400692-80.455403 53.082986-21.741163 80.707137-52.173267 76.518744-85.255733C811.628148-110.635381 753.289462-143.388343 681.398108-143.388343zM541.883611-44.015078l8.659217-11.544941c20.062941-26.745131 55.075363-45.553499 98.589412-52.988842 10.588149-1.787716 21.458731-2.713808 32.266891-2.713808 57.616232 0 100.958366 25.333992 103.82874 48.063669 2.51017 19.765159-27.65485 42.839691-76.831876 58.793034l-24.502044 7.953136 17.929348 18.510586c28.658713 29.569456 52.643987 78.05575 58.337663 117.883851l5.851265 40.910759 32.251541-47.529503c15.403828-23.466458 28.705785-43.718711 45.38056-43.718711 0.01535 0 0.01535 0 0.01535 0 1.537006 0 3.121084 0.156566 4.768607 0.455371 11.231809 8.203846 22.902616 99.70277-10.682293 153.178705l-2.792603 4.439102c-15.247262 24.313755-32.533974 51.859112-46.604434 70.510914l-10.541077 13.960966 14.808264 9.318226c4.376681 2.76088 5.03569 16.501836 5.03569 24.454972 0 27.059286-6.760984 30.918173-16.98893 36.737716l-9.474792 5.395894 1.521656 10.80816c1.254573 8.94165 1.160429 20.769023 1.066285 31.184233l-0.047072 8.126075c0 140.707672-117.130697 255.171634-261.117043 255.171634-145.366785 0-259.250532-112.079658-259.250532-255.171634 0-12.251022 1.12973-25.458835 3.482311-40.361243l1.600451-10.290367-8.721639-5.662977c-14.902408-9.710153-22.149463-21.458731-22.149463-35.93749 0-7.670703 4.376681-19.968797 13.004175-36.564777l5.207605-10.007935-7.670703-8.29799c-16.188704-17.505699-36.314067-39.294958-49.883107-66.447365-26.776853-53.616128-29.616528-117.522624-16.894785-145.978722 2.964518-6.65149 5.693676-8.580422 6.274914-8.736988 0.031722 0 0.062422 0 0.109494 0 11.827373 0 31.278377 23.906479 50.086745 47.043433l33.098839 40.392966 4.203742-37.882795c4.454452-40.329521 26.776853-85.272106 58.228169-117.318986l18.697851-19.043728-25.584702-7.608282c-50.071396-14.870686-85.538165-41.380456-82.511225-61.695131 4.297886-29.349445 65.506946-49.726541 134.731564-42.180681 47.859008 5.207605 87.295182 24.674982 105.476263 52.079122l5.082762 7.655354 12.423961-0.674359 4.220115-2.007727c4.314259-2.086521 21.019733-7.576559 33.600259-0.047072L541.883611-44.015078z"  horiz-adv-x="1024" />

    
    <glyph glyph-name="tongzhi" unicode="&#58900;" d="M693 119c-100-100-262-100-362 0-100 100-100 262 0 362 58.5 58.5 138.4 82.5 214.5 72.5-6-9.7-10.8-19.9-14.5-30.4-63.5 5.4-128.8-16.1-177.4-64.7-87.5-87.5-87.5-229.3 0-316.7 87.5-87.5 229.3-87.5 316.7 0 48.6 48.6 70.1 113.9 64.7 177.4 10.5 3.7 20.7 8.5 30.4 14.5C775.5 257.4 751.5 177.6 693 119zM749.5 401.8c-37.5-37.5-98.3-37.5-135.7 0-37.5 37.5-37.5 98.3 0 135.7s98.3 37.5 135.7 0C787 500.1 787 439.3 749.5 401.8z"  horiz-adv-x="1024" />

    
    <glyph glyph-name="duigou" unicode="&#58954;" d="M511.978511 750.440969c-247.304456 0-447.785489-200.480011-447.785489-447.785489s200.480011-447.785489 447.785489-447.785489 447.785489 200.480011 447.785489 447.785489S759.283989 750.440969 511.978511 750.440969zM475.04432 77.626353c-7.345292-7.163143-16.946974-10.729365-26.547633-10.729365-9.625218 0-19.225877 3.566222-26.544563 10.729365L201.24442 293.007749c-14.659885 14.322194-14.659885 37.509289 0 51.831482 14.662955 14.322194 38.428218 14.322194 53.091172 0l194.160071-189.467189L827.060629 524.728274c14.662955 14.322194 38.428218 14.322194 53.091172 0 14.663978-14.295588 14.663978-37.482683 0-51.804876L475.04432 77.626353z"  horiz-adv-x="1024" />

    
    <glyph glyph-name="icontongzhi" unicode="&#58956;" d="M130.005424 42.408111c2.980891 1.651616 4.796236 2.610454 6.566556 3.64604 19.856233 11.615549 40.4779 22.118763 59.383482 35.116799 31.601742 21.726837 55.088666 50.964742 72.226998 85.262896 1.948375 3.900843 3.796466 7.851828 5.853311 12.113899-1.988284 1.426489-3.883447 2.854001-5.847172 4.181229-35.013445 23.685445-65.445548 52.118008-89.840144 86.786599-25.914206 36.827767-42.786479 77.402881-48.5129 122.116245-8.79941 68.711941 7.689123 131.519406 46.718021 188.401927 38.546921 56.180534 90.836845 95.77225 152.311964 123.82005 39.541575 18.040888 81.017198 29.511127 124.056434 35.513842 27.979238 3.901867 56.090483 5.476735 84.272335 4.244674 89.177042-3.89675 171.477466-28.869514 244.23863-81.71407 44.874023-32.589233 80.563874-73.211419 104.239086-123.751488 13.135158-28.03859 21.340027-57.497529 23.903409-88.406492 6.110161-73.628928-16.347317-138.327462-61.835324-195.61112-30.608112-38.542828-68.536956-68.346621-111.623263-91.759867-44.191478-24.01188-91.346451-39.370683-140.912333-47.328935-38.527478-6.186909-77.288271-7.754614-116.175953-4.085038-7.142677 0.673335-13.184277-0.548492-19.558451-4.300956-51.109028-30.086226-106.242719-49.28345-164.503635-59.85011-44.119847-8.002254-88.506776-9.977235-133.179208-6.466272-7.205099 0.565888-14.436804 0.783853-21.653159 1.214664C137.20336 41.728636 134.278751 42.042791 130.005424 42.408111z"  horiz-adv-x="1024" />

    
    <glyph glyph-name="2" unicode="&#58906;" d="M529.628496 858.568483c265.401626-0.023536 480.602919-215.168548 480.71753-480.592686 0.115634-265.645173-215.533868-481.189274-481.132992-480.897631-265.472234 0.291642-480.506728 215.59015-480.356302 480.947773C49.007157 643.450077 264.25143 858.592019 529.628496 858.568483zM529.871019 810.218288c-237.912551 0.297782-432.151417-193.363939-432.66614-431.377798-0.5137-237.760079 193.537901-433.083649 430.696276-433.520601 239.135402-0.440022 433.555393 193.163371 434.102862 432.279331C962.549439 615.54554 768.392438 809.920506 529.871019 810.218288zM530.178011 257.352555c71.429843-0.001023 142.859685 0.040932 214.289528-0.029676 18.300808-0.01842 30.058596-15.606443 24.111141-31.915897-3.051499-8.367575-9.111518-13.734816-18.036795-15.312754-3.095501-0.547469-6.303566-0.635473-9.459442-0.636496-140.909264-0.029676-281.818527-0.029676-422.727791-0.01842-16.285918 0.001023-25.897833 6.686283-28.324092 19.571754-2.786463 14.801101 7.700379 27.930119 22.934339 28.266787 12.42703 0.274246 24.865317 0.073678 37.298488 0.074701C410.234245 257.355625 470.206128 257.353578 530.178011 257.352555zM529.844413 521.922233c-71.433936 0-142.867872-0.025583-214.301807 0.01842-17.554818 0.011256-28.953426 13.379729-25.337061 29.464055 2.171456 9.657964 10.087753 16.805758 20.441565 18.303878 2.157129 0.312108 4.374634 0.282433 6.564509 0.282433 141.649114 0.01228 283.298228 0.01535 424.947342 0.004093 13.827937-0.001023 22.981411-5.675256 26.567076-16.337083 5.136997-15.275915-5.519714-31.077809-21.656229-31.640628-10.470469-0.36532-20.964474-0.094144-31.448246-0.094144C653.696186 521.920186 591.770811 521.922233 529.844413 521.922233zM529.571191 353.676367c-71.434959 0-142.869918-0.029676-214.304877 0.021489-17.382902 0.01228-28.79379 13.725606-25.010627 29.771047 2.309602 9.79611 10.829649 17.063631 21.388123 18.188244 1.449002 0.154519 2.921539 0.124843 4.383844 0.124843 142.382824 0.005117 284.765649-0.01228 427.14745 0.036839 11.270694 0.004093 20.059871-4.053316 24.783453-14.619976 7.085372-15.847943-4.217045-33.134655-21.88852-33.461089-14.379499-0.265036-28.768207-0.061398-43.152822-0.061398C645.135206 353.675344 587.353199 353.676367 529.571191 353.676367z"  horiz-adv-x="1024" />

    
    <glyph glyph-name="4lajitong" unicode="&#58930;" d="M668.565848 781.178905l0 8.019651L668.565848 805.216367c0 26.095331-21.153786 47.249117-47.249117 47.249117l-218.633463 0c-26.095331 0-47.249117-21.153786-47.249117-47.249117l0-16.018835 0-8.019651L201.954595 781.177881l0-71.631434 620.092857 0 0 71.631434L668.565848 781.177881zM359.018793 538.467047l71.631434 0 0-365.0563-71.631434 0 0 365.0563ZM476.184283 538.467047l71.631434 0 0-365.0563-71.631434 0 0 365.0563ZM593.350796 538.467047l71.631434 0 0-365.0563-71.631434 0 0 365.0563ZM775.501346 590.062146l0 93.501534-527.002692 0 0-93.492324c-0.00614-0.423649-0.030699-0.843204-0.030699-1.2689L248.467955 123.073292c0-45.379537 35.660174-82.298378 79.491449-82.298378l368.082216 0c43.831274 0 79.491449 36.918841 79.491449 82.298378L775.533069 588.803479C775.533069 589.225081 775.507486 589.641567 775.501346 590.062146zM703.901635 123.073292c0-6.28617-4.142343-10.666944-7.860015-10.666944l-368.082216 0c-3.717671 0-7.860015 4.380774-7.860015 10.666944L320.099389 588.803479c0 6.28617 4.142343 10.666944 7.860015 10.666944l368.082216 0c3.717671 0 7.860015-4.380774 7.860015-10.666944L703.901635 123.073292z"  horiz-adv-x="1024" />

    
    <glyph glyph-name="shangbantaiyang" unicode="&#58901;" d="M512.581393 104.42925C359.198947 104.42925 234.40348 229.225969 234.40348 382.622168 234.40348 536.019616 359.198947 660.815084 512.581393 660.815084 665.982592 660.815084 790.774307 536.019616 790.774307 382.622168 790.774307 229.220969 665.982592 104.42925 512.581393 104.42925M512.581393 716.253618C328.635235 716.253618 178.964945 566.58833 178.964945 382.622168 178.964945 198.671011 328.635235 49.005722 512.581393 49.005722 696.547555 49.005722 846.217845 198.671011 846.217845 382.622168 846.217845 566.58833 696.547555 716.253618 512.581393 716.253618M512.908971 768.092524C548.005041 768.092524 576.473241 796.555723 576.473241 831.658042 576.473241 866.764113 548.005041 895.22356 512.908971 895.22356 477.811654 895.22356 449.343454 866.759111 449.343454 831.658042 449.343454 796.555723 477.811654 768.092524 512.908971 768.092524M195.296432 638.76345C211.429121 638.76345 227.453033 645.406322 238.862068 656.805355 250.266102 668.21439 256.898972 684.238302 256.898972 700.365989 256.898972 716.492426 250.266102 732.517589 238.862068 743.926624 227.453033 755.325657 211.429121 761.967278 195.296432 761.967278 179.174997 761.967278 163.144833 755.325657 151.7458 743.926624 140.341766 732.517589 133.708897 716.492426 133.708897 700.365989 133.708897 684.238302 140.341766 668.21439 151.7458 656.805355 163.144833 645.406322 179.174997 638.76345 195.296432 638.76345M63.565523 444.537283C28.459452 444.537283 4.0e-06 416.961803 4.0e-06 382.944745 4.0e-06 348.927691 28.459452 321.342206 63.565523 321.342206 98.666592 321.342206 127.131041 348.932695 127.131041 382.944745 127.12604 416.961803 98.666592 444.537283 63.565523 444.537283M151.306943 108.892842C127.252321 84.839468 127.252321 45.831196 151.306943 21.791577 175.360316-2.271798 214.353585-2.271798 238.41821 21.791577 262.471582 45.831196 262.471582 84.839468 238.41821 108.892842 214.358586 132.947466 175.360316 132.947466 151.306943 108.892842M512.278818-4.806167C478.261764-4.806167 450.68628-32.386648 450.68628-66.403702 450.68628-100.425761 478.261764-127.999991 512.278818-127.999991 546.300873-127.999991 573.880108-100.425761 573.880108-66.403702 573.875107-32.381647 546.290872-4.806167 512.278818-4.806167M784.942883 108.443982C760.116823 84.404364 760.116823 45.386087 784.942883 21.337717 809.762694-2.725659 850.012519-2.725659 874.827329 21.337717 899.65339 45.386087 899.65839 84.404364 874.827329 108.443982 850.007518 132.502357 809.753942 132.502357 784.942883 108.443982M961.621016 443.917131C927.608965 443.90713 900.02973 416.326646 900.02973 382.314592 900.02973 348.302539 927.608965 320.722055 961.621016 320.722055 995.643074 320.722055 1023.223555 348.302539 1023.223555 382.314592 1023.218554 416.331647 995.643074 443.917131 961.621016 443.917131M873.885847 656.365247C897.944221 680.41987 897.944221 719.418141 873.885847 743.476514 849.836227 767.531137 810.81795 767.531137 786.779584 743.476514 762.714956 719.418141 762.724961 680.41987 786.779584 656.365247 810.81795 632.306874 849.836227 632.306874 873.885847 656.365247"  horiz-adv-x="1024" />

    
    <glyph glyph-name="cgqqkongjiantubiao" unicode="&#58959;" d="M330.944 472.64c0 0 190.08 18.88 336.512-15.616L456.832 315.52c0 0 60.864-19.776 141.504-24.704l82.24-8.256c0 0-162.048-52.672-339.776-5.76L544 428.992C544 428.992 445.312 462.784 330.944 472.64zM226.688-46.656c-6.656 0-13.248 2.048-18.752 6.08-10.112 7.36-15.04 19.968-12.608 32.192L254.08 287.616 29.696 491.328c-9.28 8.448-12.8 21.504-8.96 33.408 3.84 11.968 14.272 20.544 26.688 22.016l303.36 35.776 123.584 278.4c5.12 11.52 16.512 18.944 29.12 19.008 11.968-1.984 24.064-7.232 29.312-18.752l126.272-277.312 301.12-33.664c12.48-1.408 22.976-9.984 26.88-21.888s0.448-25.024-8.832-33.472L755.84 291.2l60.8-296.832c2.496-12.224-2.368-24.896-12.416-32.256-10.176-7.424-23.552-8.256-34.496-2.112l-262.656 146.304-264.576-148.8C237.504-45.248 232.128-46.656 226.688-46.656zM124.736 491.456l185.728-168.64c8.32-7.552 12.032-18.88 9.856-29.952L271.68 47.36l219.584 123.52c9.728 5.504 21.504 5.44 31.232 0.064l217.408-121.152-50.496 246.336c-2.24 11.072 1.408 22.464 9.728 30.016l183.872 168.32L633.856 522.368c-11.2 1.28-20.864 8.32-25.536 18.56L504 769.984 401.92 539.968C397.312 529.6 387.648 522.496 376.384 521.152L124.736 491.456z"  horiz-adv-x="1024" />

    
    <glyph glyph-name="iconset0454" unicode="&#59213;" d="M810.666667 405.333333l-23.466667-61.866667L725.333333 343.466667l51.2-38.4L753.066667 234.666667l57.6 42.666667 57.6-42.666667-23.466667 70.4 51.2 38.4-61.866667 0L810.666667 405.333333zM539.733333 448l57.6 42.666667 57.6-42.666667-23.466667 70.4 51.2 38.4-61.866667 0L597.333333 618.666667l-23.466667-61.866667L512 556.8l51.2-38.4L539.733333 448zM981.333333 768l-85.333333 0-32 85.333333L832 768l-85.333333 0 70.4-53.333333L785.066667 618.666667l81.066667 59.733333 81.066667-59.733333-32 96L981.333333 768zM362.666667 556.8c0 113.066667 40.533333 215.466667 106.666667 296.533333C230.4 832 42.666667 629.333333 42.666667 384c0-260.266667 209.066667-469.333333 469.333333-469.333333 147.2 0 298.666667 68.266667 384 172.8-14.933333-2.133333-49.066667-2.133333-64-2.133333C571.733333 85.333333 362.666667 296.533333 362.666667 556.8zM512-42.666667C277.333333-42.666667 85.333333 149.333333 85.333333 384c0 187.733333 119.466667 349.866667 292.266667 405.333333-36.266667-72.533333-57.6-153.6-57.6-234.666667 0-268.8 204.8-488.533333 467.2-512C710.4-10.666667 610.133333-42.666667 512-42.666667z"  horiz-adv-x="1024" />

    
    <glyph glyph-name="share" unicode="&#58940;" d="M805.574 383.999c2.888-18.201 4.406-36.859 4.406-55.872 0-195.422-158.428-353.85-353.851-353.85s-353.851 158.428-353.851 353.85c0 195.422 158.429 353.851 353.851 353.851 19.013 0 37.67-1.519 55.871-4.406v37.687c-18.249 2.61-36.901 3.966-55.871 3.966-215.993 0-391.1-175.108-391.1-391.1 0-215.99 175.107-391.099 391.1-391.099 215.992 0 391.099 175.108 391.099 391.099 0 18.97-1.356 37.623-3.966 55.872l-37.687-0zM623.742 830.97v-37.248h271.646l-357.434-357.434 26.335-26.335 357.433 357.433v-271.644h37.248l-0 335.228h-335.228zM921.722 789.974l-3.748 3.748h3.748v-3.748zM805.574 383.999c2.888-18.201 4.406-36.859 4.406-55.872 0-195.422-158.428-353.85-353.851-353.85s-353.851 158.428-353.851 353.85c0 195.422 158.429 353.851 353.851 353.851 19.013 0 37.67-1.519 55.871-4.406v37.687c-18.249 2.61-36.901 3.966-55.871 3.966-215.993 0-391.1-175.108-391.1-391.1 0-215.99 175.107-391.099 391.1-391.099 215.992 0 391.099 175.108 391.099 391.099 0 18.97-1.356 37.623-3.966 55.872l-37.687-0zM623.742 830.97v-37.248h271.646l-357.434-357.434 26.335-26.335 357.433 357.433v-271.644h37.248l-0 335.228h-335.228zM921.722 789.974l-3.748 3.748h3.748v-3.748z"  horiz-adv-x="1024" />

    
    <glyph glyph-name="tianjiatupian" unicode="&#58970;" d="M512-128C229.229714-128 0 101.248 0 384 0 666.770286 229.229714 896 512 896s512-229.229714 512-512C1024 101.248 794.770286-128 512-128zM512 861.878857C248.082286 861.878857 34.139429 647.936 34.139429 384c0-83.547429 21.467429-162.048 59.136-230.326857L282.496 342.857143l261.302857-254.573714 24.996571 24.996571L470.125714 211.931429l267.483429 267.483429L969.874286 247.149714c12.946286 43.355429 19.986286 89.289143 19.986286 136.868571C989.860571 647.936 775.936 861.878857 512 861.878857zM402.413714 457.362286c-60.617143 0-109.769143 49.024-109.769143 109.494857s49.152 109.513143 109.769143 109.513143c60.635429 0 109.769143-49.042286 109.769143-109.513143S463.049143 457.362286 402.413714 457.362286z"  horiz-adv-x="1024" />

    
    <glyph glyph-name="shezhi" unicode="&#58982;" d="M886.05372 292.509263l-47.315632 0c-7.691169-27.870768-18.735713-54.214762-32.833803-78.760808l43.744293-43.7402c27.979238-27.979238 27.979238-73.356728 0-101.33699l-25.337061-25.305339c-27.979238-28.036543-73.356728-28.036543-101.363595 0l-44.014446 43.958164c-24.407899-13.854543-50.723242-24.707728-78.431304-32.290427l0-45.868677c0-39.596833-32.095999-71.663156-71.66725-71.663156l-35.83209 0c-39.569204 0-71.66725 32.066323-71.66725 71.663156L421.335582 55.033663c-27.707039 7.582699-54.023404 18.435884-78.431304 32.290427l-44.014446-43.958164c-28.006867-28.036543-73.384357-28.036543-101.363595 0l-25.337061 25.305339c-27.977191 27.981285-27.977191 73.358775 0 101.33699l43.742247 43.7402c-14.098089 24.545022-25.142633 50.889017-32.831756 78.760808l-47.313585 0c-39.571251 0-71.66725 32.06837-71.66725 71.663156l0 35.778878c0 39.596833 32.095999 71.66725 71.66725 71.66725l46.738487 0c7.421017 27.596522 17.999956 53.831023 31.718399 78.213339l-42.053792 41.99444c-27.977191 28.034497-27.977191 73.41301 0 101.392248l25.337061 25.362644c27.979238 27.922956 73.356728 27.922956 101.363595 0l41.206494-41.235147c25.224498 14.616906 52.440349 26.071795 81.239256 33.923624l0 48.15986c0 39.544645 32.098046 71.668273 71.66725 71.668273l35.83209 0c39.571251 0 71.66725-32.123628 71.66725-71.668273l0-48.15986c28.770254-7.851828 56.013735-19.307741 81.210603-33.923624l41.234123 41.235147c28.006867 27.922956 73.384357 27.922956 101.363595 0l25.337061-25.362644c27.979238-27.979238 27.979238-73.358775 0-101.392248l-42.053792-41.99444c13.716396-24.381293 24.299429-50.616818 31.718399-78.213339l46.740534 0c39.569204 0 71.665203-32.070416 71.665203-71.66725l0-35.778878C957.718923 324.577632 925.622924 292.509263 886.05372 292.509263zM510.9199 548.901701c-90.918709 0-164.605965-73.683163-164.605965-164.601872 0-90.919732 73.688279-164.608012 164.605965-164.608012s164.605965 73.688279 164.605965 164.608012C675.526889 475.218538 601.838609 548.901701 510.9199 548.901701z"  horiz-adv-x="1024" />

    
    <glyph glyph-name="shezhi1" unicode="&#59124;" d="M512 176C626.875227 176 720 269.124773 720 384 720 498.875227 626.875227 592 512 592 397.124773 592 304 498.875227 304 384 304 269.124773 397.124773 176 512 176L512 176ZM512 208C414.797885 208 336 286.797885 336 384 336 481.202115 414.797885 560 512 560 609.202115 560 688 481.202115 688 384 688 286.797885 609.202115 208 512 208ZM446.325549 685.823376 459.471517 781.835697C460.817018 791.662636 470.266941 800 479.969622 800L544.030378 800C553.710272 800 563.179912 791.685063 564.528483 781.835697L577.674451 685.823376C578.873165 677.068504 586.942141 670.943026 595.697014 672.141739 604.451888 673.340453 610.577366 681.409429 609.378651 690.164302L596.232685 786.176623C592.720154 811.830592 569.749802 832 544.030378 832L479.969622 832C454.194685 832 431.272432 811.776432 427.767315 786.176623L414.621349 690.164302C413.422634 681.409429 419.548112 673.340453 428.302986 672.141739 437.057859 670.943026 445.126835 677.068504 446.325549 685.823376ZM678.982507 643.860206 756.169072 702.455566C764.069181 708.452848 776.646693 707.66615 783.507523 700.805318L828.805318 655.507523C835.650037 648.662805 836.466536 636.08721 830.455566 628.169072L771.860206 550.982507C766.517194 543.944258 767.891456 533.907262 774.929704 528.564251 781.967954 523.22124 792.004949 524.595501 797.34796 531.63375L855.94332 608.820315C871.59968 629.444146 869.619114 659.948562 851.432736 678.134941L806.134941 723.432736C787.909309 741.658368 757.400605 743.566627 736.820315 727.94332L659.63375 669.34796C652.595501 664.004949 651.22124 653.967954 656.564251 646.929704 661.907262 639.891456 671.944258 638.517194 678.982507 643.860206L678.982507 643.860206ZM813.823376 449.674451 909.835698 436.528483C919.662635 435.182982 928 425.733059 928 416.030378L928 351.969622C928 342.289728 919.685064 332.820088 909.835698 331.471517L813.823376 318.325549C805.068504 317.126835 798.943026 309.057859 800.141739 300.302986 801.340453 291.548112 809.409429 285.422634 818.164302 286.621349L914.176624 299.767315C939.830592 303.279846 960 326.250198 960 351.969622L960 416.030378C960 441.805315 939.776432 464.727568 914.176624 468.232685L818.164302 481.378651C809.409429 482.577366 801.340453 476.451888 800.141739 467.697014 798.943026 458.942141 805.068504 450.873165 813.823376 449.674451L813.823376 449.674451ZM771.860206 217.017493 830.455566 139.830928C836.452848 131.930819 835.66615 119.353307 828.805318 112.492477L783.507523 67.194682C776.662805 60.349963 764.08721 59.533464 756.169072 65.544434L678.982507 124.139794C671.944258 129.482806 661.907262 128.108544 656.564251 121.070296 651.22124 114.032046 652.595501 103.995051 659.63375 98.65204L736.820315 40.05668C757.444146 24.40032 787.948562 26.380886 806.134941 44.567264L851.432736 89.865059C869.658368 108.090691 871.566627 138.599395 855.94332 159.179685L797.34796 236.36625C792.004949 243.404499 781.967954 244.77876 774.929704 239.435749 767.891456 234.092738 766.517194 224.055742 771.860206 217.017493L771.860206 217.017493ZM577.674451 82.176624 564.528483-13.835698C563.182982-23.662635 553.733059-32 544.030378-32L479.969622-32C470.289728-32 460.820088-23.685064 459.471517-13.835698L446.325549 82.176624C445.126835 90.931496 437.057859 97.056974 428.302986 95.858261 419.548112 94.659547 413.422634 86.590571 414.621349 77.835698L427.767315-18.176624C431.279846-43.830592 454.250198-64 479.969622-64L544.030378-64C569.805315-64 592.727568-43.776432 596.232685-18.176624L609.378651 77.835698C610.577366 86.590571 604.451888 94.659547 595.697014 95.858261 586.942141 97.056974 578.873165 90.931496 577.674451 82.176624L577.674451 82.176624ZM345.017493 124.139794 267.830928 65.544434C259.930819 59.547152 247.353307 60.33385 240.492477 67.194682L195.194682 112.492477C188.349963 119.337195 187.533464 131.91279 193.544434 139.830928L252.139794 217.017493C257.482806 224.055742 256.108544 234.092738 249.070296 239.435749 242.032046 244.77876 231.995051 243.404499 226.65204 236.36625L168.05668 159.179685C152.400319 138.555854 154.380886 108.051438 172.567264 89.865059L217.865059 44.567264C236.090691 26.341632 266.599395 24.433373 287.179685 40.05668L364.36625 98.65204C371.404499 103.995051 372.77876 114.032046 367.435749 121.070296 362.092738 128.108544 352.055742 129.482806 345.017493 124.139794L345.017493 124.139794ZM210.176624 318.325549 114.164303 331.471517C104.337364 332.817018 96 342.266941 96 351.969622L96 416.030378C96 425.710272 104.314937 435.179912 114.164303 436.528483L210.176624 449.674451C218.931496 450.873165 225.056974 458.942141 223.858261 467.697014 222.659547 476.451888 214.590571 482.577366 205.835698 481.378651L109.823377 468.232685C84.169408 464.720154 64 441.749802 64 416.030378L64 351.969622C64 326.194685 84.223568 303.272432 109.823377 299.767315L205.835698 286.621349C214.590571 285.422634 222.659547 291.548112 223.858261 300.302986 225.056974 309.057859 218.931496 317.126835 210.176624 318.325549L210.176624 318.325549ZM357.170936 674.810206 287.179685 727.94332C266.555854 743.599681 236.051438 741.619114 217.865059 723.432736L172.567264 678.134941C154.341632 659.909309 152.433373 629.400605 168.05668 608.820315L221.426155 538.517709 221.426155 538.517709 194.366107 472.584706C191.011011 464.409864 194.918186 455.063002 203.093029 451.707904 211.26787 448.352808 220.614733 452.259982 223.96983 460.434826L253.664166 532.786387C254.191858 534.072131 254.539901 535.386867 254.719947 536.702725 256.13695 541.431645 255.353282 546.74944 252.139794 550.982507L193.544434 628.169072C187.547152 636.069181 188.33385 648.646693 195.194682 655.507523L240.492477 700.805318C247.337195 707.650037 259.91279 708.466536 267.830928 702.455566L345.017493 643.860206C348.74221 641.032627 353.306766 640.086314 357.571003 640.865157 358.747088 641.054742 359.920299 641.379517 361.070762 641.847854L436.199667 672.431838C444.384051 675.763594 448.317883 685.099267 444.98613 693.283651 441.654376 701.468035 432.318701 705.401869 424.134317 702.070114L357.170936 674.810206 357.170936 674.810206ZM588.514427 672.302501 662.088645 641.654064C670.245762 638.256096 679.613006 642.114147 683.010976 650.271262 686.408944 658.428378 682.550891 667.795624 674.393776 671.193592L600.819558 701.84203C592.662442 705.239998 583.295195 701.381947 579.897227 693.22483 576.499259 685.067715 580.35731 675.700469 588.514427 672.302501ZM800.536158 306.335803 770.166042 233.438342C766.76773 225.28137 770.625389 215.913962 778.782362 212.51565 786.939334 209.117339 796.306742 212.974997 799.705053 221.131971L830.07517 294.029432C833.47348 302.186405 829.615822 311.553813 821.45885 314.952123 813.301877 318.350434 803.934469 314.492776 800.536158 306.335803ZM600.066054 65.25972 675.806288 96.954056C683.957907 100.36519 687.800829 109.738654 684.389694 117.890272 680.978558 126.041891 671.605096 129.884813 663.453477 126.473678L587.713243 94.779342C579.561624 91.368208 575.718702 81.994744 579.129838 73.843126 582.540973 65.691507 591.914435 61.848586 600.066054 65.25972ZM348.590459 96.494237 423.229131 66.012792C431.409795 62.671917 440.74985 66.595341 444.090725 74.776006 447.4316 82.95667 443.508174 92.296723 435.32751 95.637598L360.688838 126.119045C352.508173 129.45992 343.16812 125.536494 339.827245 117.35583 336.48637 109.175165 340.409794 99.835112 348.590459 96.494237ZM193.729083 295.574083 224.266192 221.564317C227.636606 213.395778 236.990776 209.50613 245.159315 212.876544 253.327854 216.246958 257.217502 225.601128 253.84709 233.769667L223.309979 307.779432C219.939565 315.947971 210.585395 319.837621 202.416856 316.467206 194.248317 313.096792 190.358669 303.742622 193.729083 295.574083ZM770.884613 532.707702 801.560394 459.560242C804.977824 451.411261 814.354254 447.575581 822.503235 450.993011 830.652216 454.410442 834.487896 463.78687 831.070466 471.935853L800.394683 545.083314C796.977253 553.232294 787.600824 557.067973 779.451843 553.650542 771.302862 550.233112 767.467182 540.856683 770.884613 532.707702Z"  horiz-adv-x="1024" />

    
    <glyph glyph-name="shuzi5-copy" unicode="&#58882;" d="M512-99.556c-266.633 0-483.556 216.923-483.556 483.556s216.923 483.556 483.556 483.556 483.556-216.923 483.556-483.556-216.923-483.556-483.556-483.556zM512 810.667c-235.264 0-426.667-191.403-426.667-426.667s191.403-426.667 426.667-426.667 426.667 191.403 426.667 426.667-191.403 426.667-426.667 426.667zM400.472 181.916v48.89c27.221-10.928 53.148-16.39 77.778-16.39 29.628 0 51.527 8.75 65.695 26.251s21.251 38.565 21.251 63.195c0 28.149-10.325 50.648-30.973 67.499-20.651 16.848-52.824 25.279-96.529 25.279-9.819 0-19.908-0.651-30.279-1.946v200.001h208.057v-48.057h-160.279v-108.055c57.873 0 100.395-13.195 127.57-39.583s40.764-58.937 40.764-97.638c0-35.556-12.268-65.789-36.804-90.695-24.539-24.909-62.916-37.362-115.14-37.362-21.111 0-44.817 2.873-71.111 8.61z"  horiz-adv-x="1024" />

    
    <glyph glyph-name="group28" unicode="&#58883;" d="M886.745351 809.548657 805.304251 809.548657 774.764087 891.288946 744.222929 809.548657 662.780835 809.548657 728.952847 758.458734 698.408708 666.501658 774.764087 722.700974 851.114496 666.501658 820.573339 758.458734 886.745351 809.548657ZM684.904763 543.394452 626.45426 543.394452 604.537061 602.059683 582.61688 543.394452 524.166378 543.394452 571.658281 506.727935 549.737106 440.731793 604.537061 481.06626 659.332047 440.731793 637.41286 506.727935 684.904763 543.394452ZM884.314303 250.060318 840.012777 250.060318 823.399954 294.524595 806.786137 250.060318 762.485606 250.060318 798.480222 222.269897 781.865411 172.249335 823.399954 202.819895 864.931516 172.249335 848.318692 222.269897 884.314303 250.060318ZM494.372654 831.291023C266.568753 810.076375 88.15806 617.543492 88.15806 382.873591 88.15806 134.039646 288.72051-67.655629 536.088085-67.655629 676.12579-67.655629 820.440192-2.937331 902.576017 98.295851 888.834534 97.000047 855.554223 96.160119 841.495689 96.160119 594.129105 96.161118 393.566657 297.881331 393.566657 546.714279 393.566657 654.678853 431.406922 753.663587 494.372654 831.291023Z"  horiz-adv-x="1024" />

    
    <glyph glyph-name="01" unicode="&#59057;" d="M552.956807 647.368316 552.956807 647.368316l0-2.158153 0 0L552.956807 647.368316 552.956807 647.368316zM552.956807 647.368316M331.263659 415.382754c0-8.160867 3.359514-16.268522 9.127891-22.040992 5.7694-5.768377 13.878079-9.124821 22.036899-9.124821 8.160867 0 16.268522 3.356444 22.036899 9.124821 5.77247 5.77247 9.127891 13.880125 9.127891 22.040992 0 8.156774-3.356444 16.268522-9.127891 22.036899-5.768377 5.768377-13.877055 9.127891-22.036899 9.127891-8.159844 0-16.267499-3.359514-22.036899-9.127891C334.623173 431.651276 331.263659 423.539528 331.263659 415.382754L331.263659 415.382754zM331.263659 415.382754M480.906841 415.382754c0-8.160867 3.356444-16.268522 9.128915-22.040992 5.768377-5.768377 13.877055-9.124821 22.036899-9.124821 8.160867 0 16.268522 3.356444 22.036899 9.124821 5.768377 5.77247 9.128915 13.880125 9.128915 22.040992 0 8.156774-3.360538 16.268522-9.128915 22.036899-5.768377 5.768377-13.877055 9.127891-22.036899 9.127891-8.159844 0-16.267499-3.359514-22.036899-9.127891C484.263285 431.651276 480.906841 423.539528 480.906841 415.382754L480.906841 415.382754zM480.906841 415.382754M630.54593 415.382754c0-8.160867 3.360538-16.268522 9.128915-22.040992 5.768377-5.768377 13.880125-9.124821 22.036899-9.124821 8.159844 0 16.267499 3.356444 22.039969 9.124821 5.768377 5.77247 9.128915 13.880125 9.128915 22.040992 0 8.156774-3.360538 16.268522-9.128915 22.036899-5.77247 5.768377-13.880125 9.127891-22.039969 9.127891-8.156774 0-16.268522-3.359514-22.036899-9.127891C633.906467 431.651276 630.54593 423.539528 630.54593 415.382754L630.54593 415.382754zM630.54593 415.382754M512.214894 26.774039c-5.469572 0-10.940167 2.086521-15.115256 6.188956l-79.391165 78.024028c-34.549887 8.927323-67.297732 22.745027-97.312326 41.026392-31.311123 19.075451-59.023278 42.612517-82.271772 69.818135-23.537066 27.64257-41.891086 58.447157-54.56064 91.415013-13.026688 34.3309-19.648502 70.320579-19.648502 106.95801 0 43.546795 9.284457 85.87074 27.638477 125.602649 17.636682 38.292118 42.898019 72.623018 75.001181 102.06456 31.959899 29.294187 69.172429 52.327786 110.561072 68.37732 42.751686 16.557094 88.099501 24.976858 134.884037 24.976858 46.785559 0 92.133374-8.419763 134.889153-24.976858 41.384549-16.050558 78.600149-39.083134 110.556978-68.37732 32.103162-29.440519 57.294914-63.772442 75.000158-102.06456 18.35402-39.804565 27.6395-82.055854 27.6395-125.602649 0-35.55682-6.550183-70.682829-19.434631-104.510262-12.379958-32.390711-30.231535-62.838164-53.192479-90.551342-44.337811-53.476959-105.804744-93.857645-173.537382-114.009613l-87.092567-78.818113C522.579963 28.645666 517.396917 26.774039 512.214894 26.774039L512.214894 26.774039zM511.926322 698.109977c-41.387619 0-81.550341-7.413853-119.265314-22.097274-36.348859-14.106276-68.954465-34.261315-96.955192-59.956533-57.152674-52.401464-88.606037-122.004705-88.606037-195.85262 0-126.034485 93.211938-236.518808 226.660276-268.694625 3.813862-0.934279 7.267521-2.877537 10.075473-5.611811l68.954465-67.874877 75.722612 68.450998c2.446725 2.228761 5.396917 3.883447 8.634658 4.748141 61.325717 17.274432 117.110231 53.337789 156.911726 101.417831 19.938098 24.039509 35.414581 50.384527 46.067198 78.385255 11.013845 28.860305 16.625656 58.876945 16.625656 89.106434 0 73.850985-31.454386 143.454226-88.602967 195.85262-28.000728 25.768897-60.606333 45.923936-96.954169 60.029188C593.407078 690.696124 553.313941 698.109977 511.926322 698.109977L511.926322 698.109977zM511.926322 698.109977M552.956807 647.368316 552.956807 647.368316l0-2.158153 0 0L552.956807 647.368316 552.956807 647.368316zM552.956807 647.368316M331.263659 415.382754c0-8.160867 3.359514-16.268522 9.127891-22.040992 5.7694-5.768377 13.878079-9.124821 22.036899-9.124821 8.160867 0 16.268522 3.356444 22.036899 9.124821 5.77247 5.77247 9.127891 13.880125 9.127891 22.040992 0 8.156774-3.356444 16.268522-9.127891 22.036899-5.768377 5.768377-13.877055 9.127891-22.036899 9.127891-8.159844 0-16.267499-3.359514-22.036899-9.127891C334.623173 431.651276 331.263659 423.539528 331.263659 415.382754L331.263659 415.382754zM331.263659 415.382754M480.906841 415.382754c0-8.160867 3.356444-16.268522 9.128915-22.040992 5.768377-5.768377 13.877055-9.124821 22.036899-9.124821 8.160867 0 16.268522 3.356444 22.036899 9.124821 5.768377 5.77247 9.128915 13.880125 9.128915 22.040992 0 8.156774-3.360538 16.268522-9.128915 22.036899-5.768377 5.768377-13.877055 9.127891-22.036899 9.127891-8.159844 0-16.267499-3.359514-22.036899-9.127891C484.263285 431.651276 480.906841 423.539528 480.906841 415.382754L480.906841 415.382754zM480.906841 415.382754M630.54593 415.382754c0-8.160867 3.360538-16.268522 9.128915-22.040992 5.768377-5.768377 13.880125-9.124821 22.036899-9.124821 8.159844 0 16.267499 3.356444 22.039969 9.124821 5.768377 5.77247 9.128915 13.880125 9.128915 22.040992 0 8.156774-3.360538 16.268522-9.128915 22.036899-5.77247 5.768377-13.880125 9.127891-22.039969 9.127891-8.156774 0-16.268522-3.359514-22.036899-9.127891C633.906467 431.651276 630.54593 423.539528 630.54593 415.382754L630.54593 415.382754zM630.54593 415.382754M512.214894 26.774039c-5.469572 0-10.940167 2.086521-15.115256 6.188956l-79.391165 78.024028c-34.549887 8.927323-67.297732 22.745027-97.312326 41.026392-31.311123 19.075451-59.023278 42.612517-82.271772 69.818135-23.537066 27.64257-41.891086 58.447157-54.56064 91.415013-13.026688 34.3309-19.648502 70.320579-19.648502 106.95801 0 43.546795 9.284457 85.87074 27.638477 125.602649 17.636682 38.292118 42.898019 72.623018 75.001181 102.06456 31.959899 29.294187 69.172429 52.327786 110.561072 68.37732 42.751686 16.557094 88.099501 24.976858 134.884037 24.976858 46.785559 0 92.133374-8.419763 134.889153-24.976858 41.384549-16.050558 78.600149-39.083134 110.556978-68.37732 32.103162-29.440519 57.294914-63.772442 75.000158-102.06456 18.35402-39.804565 27.6395-82.055854 27.6395-125.602649 0-35.55682-6.550183-70.682829-19.434631-104.510262-12.379958-32.390711-30.231535-62.838164-53.192479-90.551342-44.337811-53.476959-105.804744-93.857645-173.537382-114.009613l-87.092567-78.818113C522.579963 28.645666 517.396917 26.774039 512.214894 26.774039L512.214894 26.774039zM511.926322 698.109977c-41.387619 0-81.550341-7.413853-119.265314-22.097274-36.348859-14.106276-68.954465-34.261315-96.955192-59.956533-57.152674-52.401464-88.606037-122.004705-88.606037-195.85262 0-126.034485 93.211938-236.518808 226.660276-268.694625 3.813862-0.934279 7.267521-2.877537 10.075473-5.611811l68.954465-67.874877 75.722612 68.450998c2.446725 2.228761 5.396917 3.883447 8.634658 4.748141 61.325717 17.274432 117.110231 53.337789 156.911726 101.417831 19.938098 24.039509 35.414581 50.384527 46.067198 78.385255 11.013845 28.860305 16.625656 58.876945 16.625656 89.106434 0 73.850985-31.454386 143.454226-88.602967 195.85262-28.000728 25.768897-60.606333 45.923936-96.954169 60.029188C593.407078 690.696124 553.313941 698.109977 511.926322 698.109977L511.926322 698.109977zM511.926322 698.109977"  horiz-adv-x="1024" />

    
    <glyph glyph-name="02" unicode="&#59058;" d="M832.445266 545.807223c-17.705244 38.292118-42.896996 72.623018-75.000158 102.06456-31.956829 29.294187-69.173452 52.327786-110.556978 68.37732-42.754756 16.557094-88.10257 24.976858-134.889153 24.976858-46.784536 0-92.13235-8.419763-134.884037-24.976858-41.388643-16.050558-78.601172-39.083134-110.561072-68.37732-32.103162-29.440519-57.364499-63.772442-75.001181-102.06456-18.35402-39.73191-27.638477-82.056877-27.638477-125.602649 0-36.636409 6.622838-72.627111 19.648502-106.95801 12.669554-32.967856 31.023574-63.772442 54.56064-91.415013 23.248494-27.205619 50.959625-50.742684 82.271772-69.818135 30.013571-18.282389 62.762439-32.099069 97.312326-41.026392l79.391165-78.024028c4.175089-4.102435 9.645684-6.188956 15.115256-6.188956 5.182023 0 10.365068 1.871627 14.612813 5.54018l87.092567 78.818113c67.732637 20.152992 129.199571 60.533678 173.537382 114.009613 22.960944 27.712155 40.811498 58.160631 53.192479 90.551342 12.884448 33.827433 19.434631 68.953442 19.434631 104.510262C860.084767 463.751369 850.799286 506.002658 832.445266 545.807223zM384.466372 393.341762c-5.768377-5.768377-13.877055-9.124821-22.036899-9.124821-8.159844 0-16.267499 3.356444-22.036899 9.124821-5.768377 5.77247-9.127891 13.880125-9.127891 22.040992 0 8.156774 3.359514 16.268522 9.127891 22.036899 5.7694 5.768377 13.878079 9.127891 22.036899 9.127891 8.160867 0 16.268522-3.359514 22.036899-9.127891 5.77247-5.768377 9.127891-13.880125 9.127891-22.036899C393.594263 407.221888 390.238842 399.114233 384.466372 393.341762zM534.109554 393.341762c-5.768377-5.768377-13.877055-9.124821-22.036899-9.124821-8.159844 0-16.267499 3.356444-22.036899 9.124821-5.77247 5.77247-9.128915 13.880125-9.128915 22.040992 0 8.156774 3.356444 16.268522 9.128915 22.036899 5.768377 5.768377 13.877055 9.127891 22.036899 9.127891 8.160867 0 16.268522-3.359514 22.036899-9.127891 5.768377-5.768377 9.128915-13.880125 9.128915-22.036899C543.238468 407.221888 539.877931 399.114233 534.109554 393.341762zM683.752736 393.341762c-5.77247-5.768377-13.880125-9.124821-22.039969-9.124821-8.156774 0-16.268522 3.356444-22.036899 9.124821-5.768377 5.77247-9.128915 13.880125-9.128915 22.040992 0 8.156774 3.360538 16.268522 9.128915 22.036899 5.768377 5.768377 13.880125 9.127891 22.036899 9.127891 8.159844 0 16.267499-3.359514 22.039969-9.127891 5.768377-5.768377 9.128915-13.880125 9.128915-22.036899C692.88165 407.221888 689.521113 399.114233 683.752736 393.341762z"  horiz-adv-x="1024" />

    
    <glyph glyph-name="dengpao1" unicode="&#58972;" d="M159.663 503.232c0 96.803 34.411 179.385 102.761 248.659 68.362 69.271 151.39 103.678 248.656 103.678 97.262 0 180.29-34.411 249.581-103.678 69.271-69.276 103.678-151.856 103.678-248.659 0-13.301-0.459-27.066-1.845-40.375-2.289-2.292-1.83-6.875-1.83-9.167l-5.506-33.039c-2.297 0-1.83-3.21-1.83-5.506-3.676-12.381-7.344-23.39-11.013-33.03 0 0 0-0.451 0-1.838 0 0-0.459-0.454-1.838-1.83-5.044-13.306-9.637-25.239-14.685-34.865 0-1.379-0.459-1.842-1.835-1.842-5.969-12.381-12.843-23.86-20.188-34.865-7.333-11.013-15.14-22.026-23.86-33.03 0 0-0.459-0.462-0.906-0.929l-0.921-0.898c-7.337-8.724-16.053-16.981-25.686-25.706 0 0-0.917-0.454-2.755-1.83-4.589-3.206-5.047-5.965-10.103-11.009-2.289 0-5.491-1.372-5.491-3.676l-17.44-13.748-3.673-2.751-2.751-1.845c-11.002-8.716-18.816-18.357-23.86-29.362-5.044-11.009-9.626-18.804-14.673-23.856-5.047-5.037-14.219-7.337-27.532-7.337l-264.254 0c-13.301 0-22.477 2.304-27.52 7.337-5.052 5.056-10.103 12.847-15.606 23.856-5.506 11.005-13.301 20.646-22.931 29.362-1.383 0-2.292 0.462-3.676 1.845l-2.751 2.751-17.433 13.748-5.506 3.676-7.333 7.329c0 0-1.842 1.845-5.506 5.51l-25.701 25.706c0 0-0.451 0.443-0.91 0.898l-0.921 0.929c-16.978 22.018-31.655 43.589-44.036 67.895-1.383 0-1.845 0.459-1.845 1.842-5.044 9.626-9.63 21.559-14.673 34.865-1.379 0-1.842 0.459-1.842 1.83 0 0 0 0.459 0 1.838-3.661 9.641-7.337 20.65-11.005 33.03 0 0-0.459 0.921-0.921 2.751l-0.921 2.751c-2.292 9.633-4.123 20.646-5.503 33.039 0 2.292-1.835 6.875-1.835 9.167-1.364 13.313-1.823 27.077-1.823 40.379l0 0zM367.026 92.171l293.62 0c16.974 0 29.355-12.381 29.355-29.362 0-16.97-12.381-29.355-29.355-29.355l-293.62 0c-16.978 0-29.366 12.385-29.366 29.355 0 16.981 12.388 29.362 29.366 29.362l0 0zM379.866-25.275l266.092 0-108.275-55.041c-16.978-7.356-36.241-7.356-53.218 0l-104.598 55.041zM543.193 679.4c35.331 0 68.817-14.223 100.017-43.126 31.197-28.896 46.791-64.686 46.791-107.354 0-14.677 12.388-29.362 29.362-29.362 16.978 0 29.362 14.685 29.362 29.362 0 63.773-20.642 114.24-62.401 152.31-41.743 38.082-89.455 56.898-143.132 56.898-16.974 0-29.362-12.385-29.362-29.362s12.388-29.366 29.362-29.366z"  horiz-adv-x="1024" />

    
    <glyph glyph-name="fenxiang" unicode="&#58880;" d="M796.444444 687.407407l-157.392593 0c-9.481481 0-18.962963-7.585185-18.962963-18.962963s7.585185-18.962963 18.962963-18.962963l108.088889 0L500.622222 410.548148c-7.585185-7.585185-7.585185-18.962963 0-26.548148 3.792593-3.792593 9.481481-5.688889 13.274074-5.688889 5.688889 0 9.481481 1.896296 13.274074 5.688889l252.207407 244.622222 0-115.674074c0-9.481481 7.585185-18.962963 18.962963-18.962963s18.962963 7.585185 18.962963 18.962963l0 157.392593C815.407407 679.822222 807.822222 687.407407 796.444444 687.407407zM798.340741 378.311111c-9.481481 0-18.962963-5.688889-18.962963-17.066667-11.377778-138.42963-128.948148-246.518519-267.377778-246.518519-147.911111 0-267.377778 121.362963-267.377778 269.274074 0 136.533333 102.4 250.311111 237.037037 267.377778 9.481481 1.896296 17.066667 9.481481 15.17037 18.962963-1.896296 9.481481-9.481481 17.066667-18.962963 15.17037C324.266667 668.444444 208.592593 539.496296 208.592593 384c0-166.874074 136.533333-303.407407 303.407407-303.407407 157.392593 0 290.133333 121.362963 303.407407 278.755556C815.407407 368.82963 809.718519 376.414815 798.340741 378.311111z"  horiz-adv-x="1024" />

    
    <glyph glyph-name="muying1" unicode="&#58907;" d="M986.086 384.609c0 16.342-0.823 32.707-2.447 48.636-1.623 15.903-4.069 31.809-7.219 47.26-3.155 15.375-7.107 30.713-11.724 45.587-4.639 14.901-10.031 29.615-16.020 43.717-5.967 14.144-12.707 28.154-20.019 41.615-7.31 13.435-15.331 26.642-23.858 39.26-8.569 12.639-17.756 24.956-27.373 36.611-9.693 11.746-20.019 23.1-30.719 33.798-10.853 10.828-22.212 21.139-33.749 30.643-11.585 9.574-23.906 18.805-36.63 27.424-12.659 8.548-25.847 16.569-39.239 23.837-13.508 7.333-27.513 14.076-41.572 20.014-14.144 5.989-28.858 11.381-43.759 16.020-14.88 4.618-30.212 8.569-45.614 11.724-15.423 3.155-31.331 5.598-47.234 7.219-31.813 3.248-65.45 3.248-97.261 0-15.95-1.645-31.857-4.064-46.781-7.127-16.192-2.978-45.362-9.862-76.882-24.484-103.155-40.010-188.846-114.884-242.579-210.129-1.335-1.424-2.531-3.019-3.509-4.816-7.264-13.392-14.004-27.374-20.042-41.615-6.101-14.397-11.472-29.113-15.993-43.717-4.618-14.876-8.57-30.207-11.725-45.611-3.219-15.654-5.645-31.562-7.219-47.238-1.623-15.929-2.445-32.288-2.445-48.63 0-0.162 0.005-0.325 0.006-0.487 0-0.161-0.006-0.321-0.006-0.482 0-230.421 164.469-422.483 382.636-465.712 2.278-0.452 4.559-0.89 6.846-1.309 1.225-0.224 2.448-0.448 3.676-0.662 3.25-0.571 6.507-1.111 9.764-1.614 0.182-0.029 0.364-0.059 0.547-0.087 7.909-1.211 15.829-2.219 23.706-3.008 15.903-1.625 32.267-2.446 48.629-2.446 0 0 0 0 0 0s0 0 0 0c0.031 0 0.062 0.001 0.093 0.001 16.316 0.003 32.637 0.823 48.454 2.442 0.091 0.009 0.181 0.019 0.273 0.029 7.836 0.789 15.716 1.789 23.589 2.993 0.074 0.011 0.145 0.025 0.219 0.035 3.529 0.542 7.056 1.126 10.578 1.748 0.852 0.149 1.701 0.307 2.551 0.462 2.498 0.457 4.993 0.934 7.483 1.431 218.134 43.255 382.569 235.301 382.569 465.699 0 0.161-0.005 0.321-0.006 0.482 0.001 0.163 0.007 0.326 0.007 0.489zM211.309 677.383c-2.502-11.199-4.26-23.1-5.146-35.75-1.582-59.162 21.25-108.461 64.349-138.806 49.705-34.96 121.87-40.674 187.251-15.197 77.445 25.644 110.877 86.977 109.646 136.387-1.033 41.406-14.718 72.032-40.657 91.020-44.63 32.681-107.517 15.015-110.146 14.262-12.385-3.59-19.515-16.503-15.972-28.891 3.545-12.409 16.473-19.649 28.885-16.107 12.063 3.404 48.174 8.796 69.697-7.107 13.553-10.011 20.751-28.294 21.391-54.345 0.57-22.327-14.923-70.044-78.682-91.203-52.101-20.203-107.425-16.617-144.47 9.456-30.283 21.326-45.683 55.647-44.56 98.246 3.391 48.416 23.129 82.998 48.775 107.687 61.491 35.274 132.731 55.463 208.608 55.463 231.494 0 419.828-187.901 419.828-418.861s-188.333-418.86-419.827-418.86-419.828 187.9-419.828 418.86c0 114.329 46.169 218.089 120.858 293.745zM153.7 291.148c5.914-11.472 20.035-15.907 31.534-10.058 3.881 2.036 96.367 48.657 147.69-28.381 4.506-6.763 11.93-10.425 19.492-10.425 4.458 0 8.961 1.285 12.961 3.936 10.764 7.171 13.666 21.685 6.49 32.449-59.44 89.148-162.114 67.779-208.115 44.013-11.471-5.94-15.971-20.063-10.052-31.535zM532.127 237.491c3.22-1.51 6.607-2.22 9.919-2.22 8.796 0 17.23 4.982 21.209 13.46 1.827 3.908 46 95.068 154.388 45.89 11.815-5.329 25.637-0.112 30.987 11.654 5.323 11.767 0.112 25.637-11.655 30.988-119.994 54.387-193.81-21.159-216.089-68.652-5.487-11.697-0.457-25.636 11.242-31.12z"  horiz-adv-x="1024" />

    
    <glyph glyph-name="duigou1" unicode="&#58947;" d="M512 896C230.4 896 0 665.6 0 384s230.4-512 512-512 512 230.4 512 512S793.6 896 512 896zM844.8 531.2l-428.8-428.8L179.2 339.2c-25.6 25.6-25.6 64 0 89.6s64 25.6 89.6 0l147.2-147.2 339.2 339.2c25.6 25.6 64 25.6 89.6 0S870.4 556.8 844.8 531.2z"  horiz-adv-x="1024" />

    
    <glyph glyph-name="combinedshapecopy" unicode="&#58920;" d="M494.933333 401.066667 256 401.066667 256 366.933333 494.933333 366.933333 494.933333 128 529.066667 128 529.066667 366.933333 768 366.933333 768 401.066667 529.066667 401.066667 529.066667 640 494.933333 640 494.933333 401.066667 494.933333 401.066667ZM964.266667 896 921.6 896 921.6 878.933333 964.266667 878.933333 964.266667 896 964.266667 896ZM998.4 889.168089C1008.881493 883.107713 1017.015083 873.435006 1021.099503 861.866667L1002.36794 861.866667C1001.228117 863.835087 999.897003 865.680494 998.4 867.376843L998.4 889.168089 998.4 889.168089ZM964.266667-128 921.6-128 921.6-110.933333 964.266667-110.933333 964.266667-128 964.266667-128ZM998.4-121.166046C1006.178697-116.668834 1012.668868-110.181453 1017.168085-102.400017L998.4-102.4 998.4-121.166046 998.4-121.166046ZM887.466667 896 844.8 896 844.8 878.933333 887.466667 878.933333 887.466667 896 887.466667 896ZM887.466667-128 844.8-128 844.8-110.933333 887.466667-110.933333 887.466667-128 887.466667-128ZM810.666667 896 768 896 768 878.933333 810.666667 878.933333 810.666667 896 810.666667 896ZM810.666667-128 768-128 768-110.933333 810.666667-110.933333 810.666667-128 810.666667-128ZM733.866667 896 691.2 896 691.2 878.933333 733.866667 878.933333 733.866667 896 733.866667 896ZM733.866667-128 691.2-128 691.2-110.933333 733.866667-110.933333 733.866667-128 733.866667-128ZM657.066667 896 614.4 896 614.4 878.933333 657.066667 878.933333 657.066667 896 657.066667 896ZM657.066667-128 614.4-128 614.4-110.933333 657.066667-110.933333 657.066667-128 657.066667-128ZM580.266667 896 533.333333 896 533.333333 878.933333 580.266667 878.933333 580.266667 896 580.266667 896ZM580.266667-128 533.333333-128 533.333333-110.933333 580.266667-110.933333 580.266667-128 580.266667-128ZM68.266667 896 110.933333 896 110.933333 878.933333 68.266667 878.933333 68.266667 896 68.266667 896ZM34.133333 893.099505C19.586684 887.963534 8.037387 876.425058 2.898711 861.866667L21.628382 861.866667C24.629808 867.048758 28.956114 871.370095 34.133333 874.367914L34.133333 893.099505 34.133333 893.099505ZM68.266667-128 110.933333-128 110.933333-110.933333 68.266667-110.933333 68.266667-128 68.266667-128ZM34.133333-125.101286C22.557364-121.015322 12.890733-112.876245 6.833957-102.4L28.621694-102.4C30.317549-103.897993 32.163238-105.230541 34.133333-106.371593L34.133333-125.101286 34.133333-125.101286ZM145.066667 896 187.733333 896 187.733333 878.933333 145.066667 878.933333 145.066667 896 145.066667 896ZM145.066667-128 187.733333-128 187.733333-110.933333 145.066667-110.933333 145.066667-128 145.066667-128ZM221.866667 896 264.533333 896 264.533333 878.933333 221.866667 878.933333 221.866667 896 221.866667 896ZM221.866667-128 264.533333-128 264.533333-110.933333 221.866667-110.933333 221.866667-128 221.866667-128ZM298.666667 896 341.333333 896 341.333333 878.933333 298.666667 878.933333 298.666667 896 298.666667 896ZM298.666667-128 341.333333-128 341.333333-110.933333 298.666667-110.933333 298.666667-128 298.666667-128ZM375.466667 896 418.133333 896 418.133333 878.933333 375.466667 878.933333 375.466667 896 375.466667 896ZM375.466667-128 418.133333-128 418.133333-110.933333 375.466667-110.933333 375.466667-128 375.466667-128ZM452.266667 896 499.2 896 499.2 878.933333 452.266667 878.933333 452.266667 896 452.266667 896ZM452.266667-128 499.2-128 499.2-110.933333 452.266667-110.933333 452.266667-128 452.266667-128ZM1024 827.733333 1024 785.066667 1006.933333 785.066667 1006.933333 827.733333 1024 827.733333 1024 827.733333ZM0 827.733333 0 785.066667 17.066667 785.066667 17.066667 827.733333 0 827.733333 0 827.733333ZM1024 750.933333 1024 708.266667 1006.933333 708.266667 1006.933333 750.933333 1024 750.933333 1024 750.933333ZM0 750.933333 0 708.266667 17.066667 708.266667 17.066667 750.933333 0 750.933333 0 750.933333ZM1024 674.133333 1024 631.466667 1006.933333 631.466667 1006.933333 674.133333 1024 674.133333 1024 674.133333ZM0 674.133333 0 631.466667 17.066667 631.466667 17.066667 674.133333 0 674.133333 0 674.133333ZM1024 597.333333 1024 554.666667 1006.933333 554.666667 1006.933333 597.333333 1024 597.333333 1024 597.333333ZM0 597.333333 0 554.666667 17.066667 554.666667 17.066667 597.333333 0 597.333333 0 597.333333ZM1024 520.533333 1024 477.866667 1006.933333 477.866667 1006.933333 520.533333 1024 520.533333 1024 520.533333ZM0 520.533333 0 477.866667 17.066667 477.866667 17.066667 520.533333 0 520.533333 0 520.533333ZM1024 443.733333 1024 401.066667 1006.933333 401.066667 1006.933333 443.733333 1024 443.733333 1024 443.733333ZM0 443.733333 0 401.066667 17.066667 401.066667 17.066667 443.733333 0 443.733333 0 443.733333ZM1024-68.266667 1024-25.6 1006.933333-25.6 1006.933333-68.266667 1024-68.266667 1024-68.266667ZM0-68.266667 0-25.6 17.066667-25.6 17.066667-68.266667 0-68.266667 0-68.266667ZM1024 8.533333 1024 51.2 1006.933333 51.2 1006.933333 8.533333 1024 8.533333 1024 8.533333ZM0 8.533333 0 51.2 17.066667 51.2 17.066667 8.533333 0 8.533333 0 8.533333ZM1024 85.333333 1024 128 1006.933333 128 1006.933333 85.333333 1024 85.333333 1024 85.333333ZM0 85.333333 0 128 17.066667 128 17.066667 85.333333 0 85.333333 0 85.333333ZM1024 162.133333 1024 204.8 1006.933333 204.8 1006.933333 162.133333 1024 162.133333 1024 162.133333ZM0 162.133333 0 204.8 17.066667 204.8 17.066667 162.133333 0 162.133333 0 162.133333ZM1024 238.933333 1024 281.6 1006.933333 281.6 1006.933333 238.933333 1024 238.933333 1024 238.933333ZM0 238.933333 0 281.6 17.066667 281.6 17.066667 238.933333 0 238.933333 0 238.933333ZM1024 315.733333 1024 366.933333 1006.933333 366.933333 1006.933333 315.733333 1024 315.733333 1024 315.733333ZM0 315.733333 0 366.933333 17.066667 366.933333 17.066667 315.733333 0 315.733333 0 315.733333Z"  horiz-adv-x="1024" />

    
    <glyph glyph-name="weixin" unicode="&#58894;" d="M541.627 553.985c26.887 0 44.851 18.817 44.851 46.841 0 28.34-17.938 46.683-44.851 46.683-26.913 0-53.918-18.345-53.918-46.683 0.025-28.023 27.047-46.841 53.918-46.841zM290.811 647.505c-26.874 0-54.051-18.345-54.051-46.683 0-28.023 27.173-46.841 54.051-46.841 26.781 0 44.721 18.817 44.721 46.841-0.039 28.34-17.938 46.683-44.721 46.683zM926.073 51.943c-5.455-4.307-7.772-11.709-5.81-18.538l15.439-53.71-63.389 36.269c-2.421 1.399-5.13 2.109-7.838 2.109-1.347 0-2.683-0.17-3.993-0.535-34.004-8.989-69.174-18.241-103.441-18.241-159.127 0-288.579 114.314-288.579 254.823 0 140.509 129.453 254.8 288.579 254.8 156.093 0 287.99-116.669 287.99-254.8 0-70.064-42.236-141.869-118.958-202.175zM439.325 188.080c-10.61-0.955-21.392-1.428-32.070-1.428-36.061 0-66.572 6.516-101.847 14.131l-20.517 4.33c-3.518 0.783-7.248 0.274-10.48-1.465l-90.119-47.155 23.421 73.545c2.29 7.209-0.222 15.060-6.137 19.403-90.542 65.968-136.438 146.343-136.438 238.848 0 166.283 153.461 301.598 342.078 301.598 166.755 0 314.38-106.047 344.866-247.103-174.854-2.395-316.318-130.88-316.318-288.697 0-22.95 3.338-45.179 8.95-66.622-1.7 0.447-3.493 0.783-5.39 0.618zM1077.688 254.089c0 148.187-131.495 274.461-292.91 287.598 0.222 1.845 0.314 3.753-0.065 5.679-32.371 157.74-194.649 276.673-377.494 276.673-206.623 0-374.736-150.608-374.736-335.747 0-99.334 48.501-188.828 140.417-259.401l-32.042-100.695c-2.054-6.555-0.195-13.765 4.801-18.307 3.036-2.735 6.858-4.158 10.717-4.158 2.489 0 4.996 0.602 7.315 1.806l120.292 62.931 14.837-3.153c37.038-7.955 69.018-14.85 108.401-14.85 11.607 0 23.357 0.547 34.895 1.57 4.669 0.421 8.622 2.866 11.291 6.427 43.386-113.465 162.919-195.382 303.613-195.382 36.018 0 72.511 9.079 105.233 17.65l92.726-52.99c2.46-1.399 5.169-2.118 7.838-2.118 3.664 0 7.326 1.294 10.257 3.794 5.169 4.37 7.287 11.579 5.364 18.16l-23.682 82.324c79.405 65.603 122.935 144.065 122.935 222.192zM622.302 338.282c0-18.843 17.938-37.461 35.865-37.461 26.953 0 44.747 18.62 44.747 37.461 0 18.751-17.793 37.602-44.747 37.602-17.925 0-35.865-18.895-35.865-37.602zM819.597 338.282c0-18.843 17.925-37.461 35.602-37.461 26.848 0 44.969 18.62 44.969 37.461 0 18.751-18.096 37.602-44.969 37.602-17.676 0-35.602-18.895-35.602-37.602z"  horiz-adv-x="1103" />

    
    <glyph glyph-name="weibo" unicode="&#58908;" d="M890.569275 895.078169C875.688116 895.078169 863.601159 883.042313 863.601159 868.176193 863.601159 853.307759 875.688116 841.270747 890.569275 841.270747 1024.452175 841.270747 1133.305507 732.661205 1133.305507 599.139085 1133.305507 584.268337 1145.392463 572.231325 1160.306087 572.231325 1175.183768 572.231325 1187.245218 584.266025 1187.245218 599.139085 1187.244059 762.348337 1054.179711 895.080482 890.564638 895.080482L890.569275 895.078169 890.569275 895.078169ZM890.569275 706.750458C875.688116 706.750458 863.601159 694.714602 863.601159 679.848482 863.601159 664.980048 875.688116 652.946506 890.569275 652.946506 920.303769 652.946506 944.536812 628.823904 944.536812 599.137927 944.536812 584.267181 956.60058 572.229012 971.475943 572.229012 986.390725 572.229012 998.478841 584.263711 998.478841 599.137927 998.477682 658.507567 950.090434 706.750458 890.566957 706.750458L890.569275 706.750458 890.569275 706.750458ZM827.71942 379.337253C846.100869 430.826796 844.417391 473.12694 822.636522 505.127325 807.577971 527.307951 775.967536 553.735711 711.202319 553.735711 671.058551 553.735711 623.785508 543.38159 573.472464 523.728193 587.092174 590.82988 568.132173 628.615711 548.348986 648.945735 528.641159 669.22718 500.404638 679.945639 466.616811 679.945639 381.886376 679.945639 266.09855 614.949012 164.435941 510.329831 58.396522 401.132724 0 286.477495 0 187.535036 0-9.570313 238.105507-127.37735 468.307247-127.37735 764.962319-127.37735 971.686957 48.598748 971.686957 206.554602 971.684637 285.215615 918.033623 349.643181 827.717101 379.329156L827.71942 379.337253 827.71942 379.337253ZM468.308406-73.564145C208.947246-73.564145 53.945507 59.17147 53.945507 187.543132 53.945507 272.456867 106.942609 373.817831 203.183767 472.869012 292.259709 564.561734 398.112464 626.144001 466.624928 626.144001 485.722899 626.144001 500.183188 621.206362 509.613912 611.48029 526.75942 593.827855 528.649275 557.41147 514.848695 511.692337 509.133913 493.357494 513.954782 481.268433 519.015653 474.436241 522.912464 469.189783 531.946667 460.303422 548.806956 460.303422 558.921738 460.303422 568.980869 463.610217 575.746087 466.447422 575.936232 466.502939 576.147247 466.609349 576.328116 466.659085 626.818551 488.410602 673.459711 499.914409 711.212753 499.914409 733.913043 499.914409 763.937391 495.611759 778.006957 474.909301 793.233623 452.520482 784.70029 417.367132 774.866086 391.879711 772.738551 386.419277 766.257391 369.709494 774.212173 353.31547 782.006956 337.236048 797.68 332.351614 809.004057 328.827374 841.692754 318.37494 917.76 285.582265 917.76 206.559229 917.76 89.594217 746.771014-73.567615 468.316522-73.567615L468.308406-73.564145 468.308406-73.564145Z"  horiz-adv-x="1188" />

    
    <glyph glyph-name="caidan" unicode="&#58939;" d="M780.476 144.275h-536.941c-13.482 0-24.406 10.924-24.406 24.416v48.801c0 13.482 10.924 24.396 24.406 24.396h536.941c13.472 0 24.396-10.915 24.396-24.396v-48.801c0-13.493-10.924-24.416-24.396-24.416v0zM780.476 339.528h-536.941c-13.482 0-24.406 10.924-24.406 24.416v48.801c0 13.482 10.924 24.406 24.406 24.406h536.941c13.472 0 24.396-10.924 24.396-24.406v-48.801c0-13.493-10.924-24.416-24.396-24.416v0zM780.476 534.773h-536.941c-13.482 0-24.406 10.934-24.406 24.406v48.812c0 13.482 10.924 24.406 24.406 24.406h536.941c13.472 0 24.396-10.924 24.396-24.396v-48.822c0-13.472-10.924-24.406-24.396-24.406v0z"  horiz-adv-x="1024" />

    
    <glyph glyph-name="duigou1" unicode="&#58902;" d="M511.380388 832.025966c-247.396553 0-447.952288-200.554712-447.952288-447.952288s200.555735-447.952288 447.952288-447.952288c247.397576 0 447.952288 200.554712 447.952288 447.952288S758.777965 832.025966 511.380388 832.025966zM760.632195 507.43017l-294.925033-294.927079c-6.656607-6.655584-15.382339-9.984399-24.107047-9.984399s-17.450441 3.328815-24.107047 9.984399L262.130627 367.867578c-13.316284 13.310144-13.316284 34.899858 0 48.210002 13.314237 13.31833 34.899858 13.31833 48.214095 0l131.255393-131.25437 270.816962 270.817985c13.31526 13.317307 34.899858 13.317307 48.215118 0C773.946432 542.331052 773.946432 520.740314 760.632195 507.43017z"  horiz-adv-x="1024" />

    
    <glyph glyph-name="duigou1" unicode="&#58925;" d="M511.380388 832.025966c-247.396553 0-447.952288-200.554712-447.952288-447.952288s200.555735-447.952288 447.952288-447.952288c247.397576 0 447.952288 200.554712 447.952288 447.952288S758.777965 832.025966 511.380388 832.025966zM760.632195 507.43017l-294.925033-294.927079c-6.656607-6.655584-15.382339-9.984399-24.107047-9.984399s-17.450441 3.328815-24.107047 9.984399L262.130627 367.867578c-13.316284 13.310144-13.316284 34.899858 0 48.210002 13.314237 13.31833 34.899858 13.31833 48.214095 0l131.255393-131.25437 270.816962 270.817985c13.31526 13.317307 34.899858 13.317307 48.215118 0C773.946432 542.331052 773.946432 520.740314 760.632195 507.43017z"  horiz-adv-x="1024" />

    
    <glyph glyph-name="fankuiyijian" unicode="&#58953;" d="M929.321664-60.792319 91.755774-60.792319c-15.440667 0-27.918863 12.478196-27.918863 27.918863l0 0c0 15.440667 12.478196 27.918863 27.918863 27.918863l837.564867 0c15.440667 0 27.918863-12.478196 27.918863-27.918863l0 0C957.240527-48.314123 944.762331-60.792319 929.321664-60.792319L929.321664-60.792319zM939.535283 729.054757l-84.983533 84.983533c-11.865235 11.763928-27.305903 17.705244-42.8489 17.705244-15.525602 0-30.966269-5.941316-42.74657-17.705244L349.918531 394.983145 234.314607 149.128715c-9.94142-21.297049 6.638187-43.274596 27.220968-43.274596 4.269233 0 8.626471 0.953721 13.087063 2.962471l245.858524 115.524107L939.51891 643.374352C963.16547 667.104823 963.16547 705.408197 939.535283 729.054757L939.535283 729.054757zM487.84588 270.742517l-172.84358-81.216743 81.238232 172.822091 303.531038 303.531038 91.605348-91.601254L487.84588 270.742517 487.84588 270.742517zM900.007011 682.903647l-69.184709-69.180616-91.605348 91.601254 69.184709 69.184709c0.339738 0.357134 1.39579 1.39579 3.319605 1.39579 1.922792 0 2.961448-1.038656 3.319605-1.39579l84.98251-84.983533c0.339738-0.339738 1.39579-1.39579 1.39579-3.319605C901.420197 684.283064 900.346749 683.243385 900.007011 682.903647L900.007011 682.903647zM900.007011 682.903647"  horiz-adv-x="1024" />

    
    <glyph glyph-name="yueliang-copy" unicode="&#58881;" d="M944.99 114.314c-82.617-111.575-215.228-183.9-364.723-183.9-250.516 0-453.595 203.078-453.595 453.584 0 171.326 94.985 320.461 235.158 397.621 0.001-368.85 260.832-667.306 583.159-667.306z"  horiz-adv-x="1024" />

    
    <glyph glyph-name="fenxiang1" unicode="&#58890;" d="M890.538667 361.756444c0.037926 1.118815 0.227556 2.161778 0.246519 3.280593l-1.251556 0c-3.925333 11.017481-14.336 18.962963-26.699852 18.962963s-22.774519-7.945481-26.699852-18.962963l-2.218667 0c-5.063111-178.858667-151.305481-322.37037-331.377778-322.37037C319.241481 42.666667 170.666667 191.241481 170.666667 374.518519c0 180.072296 143.511704 326.314667 322.37037 331.377778L493.037037 708.114963C496.014222 707.053037 499.181037 706.37037 502.518519 706.37037c15.720296 0 28.444444 12.743111 28.444444 28.444444S518.238815 763.259259 502.518519 763.259259c-3.337481 0-6.504296-0.682667-9.481481-1.744593L493.037037 762.785185C282.775704 757.703111 113.777778 586.012444 113.777778 374.518519 113.777778 159.819852 287.819852-14.222222 502.518519-14.222222c204.856889 0 371.882667 158.663111 386.806519 359.708444C890.538667 348.634074 891.259259 351.990519 891.259259 355.555556 891.259259 357.679407 890.974815 359.765333 890.538667 361.756444zM700.928 687.407407l80.57363 0L479.535407 385.422222c-7.414519-7.414519-7.414519-19.399111 0-26.81363l13.406815-13.406815c7.414519-7.414519 19.399111-7.414519 26.81363 0l313.761185 313.780148L833.517037 573.62963c0-10.486519 12.705185-18.962963 28.406519-18.962963 15.68237 0 28.406519 8.476444 28.406519 18.962963L890.330074 725.333333c0 10.467556-12.724148 18.962963-28.406519 18.962963-2.142815 0-4.228741-0.18963-6.238815-0.493037C854.622815 744.087704 853.560889 744.296296 852.442074 744.296296l-151.514074 0c-10.467556 0-18.925037-12.743111-18.925037-28.444444S690.460444 687.407407 700.928 687.407407z"  horiz-adv-x="1024" />

    
    <glyph glyph-name="dengpao" unicode="&#58921;" d="M652.8 631.68c-41.6 39.04-96 58.88-153.6 55.04-104.32-6.4-188.8-93.44-192-197.76-2.56-69.12 30.08-134.4 86.4-174.08 1.92-3.2 10.24-17.92 34.56-78.08 7.04-17.92 24.32-29.44 44.16-29.44 0 0 0 0 0 0l80.64 0c19.2 0 36.48 11.52 44.16 29.44 24.96 61.44 33.28 75.52 35.2 78.72 53.76 38.4 85.76 101.12 85.76 167.04C717.44 538.24 693.76 592.64 652.8 631.68zM611.84 339.84c-4.48-3.2-10.88-7.68-45.44-92.16-2.56-5.76-7.68-9.6-14.08-9.6l-80.64 0c0 0 0 0 0 0-6.4 0-12.16 3.84-14.08 9.6-33.92 83.84-40.32 88.32-44.8 91.52C364.8 373.12 337.28 428.8 339.2 487.68c3.2 88.32 74.24 161.92 161.92 167.04 3.84 0 7.68 0.64 10.88 0.64 44.16 0 86.4-16.64 118.4-46.72 35.2-33.28 54.4-78.08 54.4-126.08C685.44 425.6 657.92 372.48 611.84 339.84zM583.68 200.32l-142.72 0c-8.96 0-16-7.04-16-16s7.04-16 16-16l142.72 0c8.96 0 16 7.04 16 16S592.64 200.32 583.68 200.32zM576.64 161.92l-129.28 0c-8.96 0-16-7.04-16-16s7.04-16 16-16l129.28 0c8.96 0 16 7.04 16 16S585.6 161.92 576.64 161.92zM552.32 124.16l-80.64 0c-8.96 0-16-7.04-16-16s7.04-16 16-16l80.64 0c8.96 0 16 7.04 16 16S561.28 124.16 552.32 124.16zM484.48 588.8c-47.36-10.88-83.84-48-93.44-95.36-1.92-8.96 3.84-17.28 12.16-19.2 1.28 0 1.92-0.64 3.2-0.64 7.68 0 14.08 5.12 15.36 12.8 7.04 35.2 34.56 62.72 69.12 70.4 8.32 1.92 14.08 10.24 12.16 19.2S493.44 590.72 484.48 588.8z"  horiz-adv-x="1024" />

    
    <glyph glyph-name="dengpao1" unicode="&#58960;" d="M643.072 238.592c-6.144 0-12.288 3.072-15.36 9.216-5.12 8.192-2.048 19.456 6.144 24.576 74.752 44.032 119.808 121.856 119.808 208.896 0 133.12-108.544 241.664-242.688 241.664-133.12 0-241.664-108.544-241.664-241.664 0-84.992 46.08-164.864 119.808-208.896 8.192-5.12 11.264-16.384 6.144-24.576-5.12-8.192-16.384-11.264-24.576-6.144-84.992 50.176-138.24 141.312-138.24 239.616 0 153.6 124.928 277.504 277.504 277.504s278.528-124.928 278.528-277.504c0-99.328-51.2-189.44-138.24-239.616C649.216 239.616 646.144 238.592 643.072 238.592zM619.52 197.632l-215.04 0c-10.24 0-18.432 8.192-18.432 18.432s8.192 18.432 18.432 18.432l215.04 0c10.24 0 18.432-8.192 18.432-18.432S629.76 197.632 619.52 197.632zM602.112 136.192l-181.248 0c-10.24 0-18.432 8.192-18.432 18.432s8.192 18.432 18.432 18.432l181.248 0c10.24 0 18.432-8.192 18.432-18.432S612.352 136.192 602.112 136.192zM524.288 8.192l-25.6 0c-50.176 0-91.136 38.912-91.136 88.064 0 10.24 8.192 18.432 18.432 18.432s18.432-8.192 18.432-18.432c0-27.648 25.6-52.224 55.296-52.224l25.6 0c29.696 0 54.272 23.552 54.272 52.224 0 10.24 8.192 18.432 18.432 18.432s18.432-8.192 18.432-18.432C614.4 48.128 574.464 8.192 524.288 8.192z"  horiz-adv-x="1024" />

    
    </font>
</defs>
</svg>
